<?xml version="1.0" encoding="UTF-8"?>
<!DOCTYPE svg PUBLIC "-//W3C//DTD SVG 1.1//EN" "http://www.w3.org/Graphics/SVG/1.1/DTD/svg11.dtd">
<!-- Creator: CorelDRAW 2021 (64-Bit) -->
<svg xmlns="http://www.w3.org/2000/svg" xml:space="preserve" width="1736px" height="1760px" version="1.1" shape-rendering="geometricPrecision" text-rendering="geometricPrecision" image-rendering="optimizeQuality" fill-rule="evenodd" clip-rule="evenodd"
viewBox="0 0 1736 1759.62"
 xmlns:xlink="http://www.w3.org/1999/xlink"
 xmlns:xodm="http://www.corel.com/coreldraw/odm/2003">
 <g id="Layer_x0020_1">
  <metadata id="CorelCorpID_0Corel-Layer"/>
  <polyline fill="none" stroke="black" stroke-width="0.9" stroke-miterlimit="22.9256" points="68.2,580.11 121.69,572.5 122.63,572.5 174.81,607.81 287.61,626.25 308.54,628.43 363.54,678.43 403.22,713.74 480.08,761.54 601.63,804.19 658.66,834.19 675.38,842.78 724.91,913.09 768.65,961.21 796.15,959.96 843.33,1112.13 852.7,1141.5 880.82,1153.37 930.51,1173.06 952.06,1230.86 998.31,1352.41 1029.56,1414.9 1039.87,1423.03 1160.48,1518.33 1178.91,1562.7 1214.22,1590.82 1249.61,1609.35 "/>
  <polyline fill="none" stroke="black" stroke-width="0.9" stroke-miterlimit="22.9256" points="284.87,252.51 298.09,257.24 422.46,369.72 569.31,377.22 743.04,486.58 825.53,605.32 947.39,695.3 1002.38,762.8 1034.25,755.3 1048,698.43 1060.81,686.4 1112.53,640.47 1217.67,615.16 1286.41,596.73 1377.65,569.23 1399.21,559.23 1562.31,474.55 1602.35,472.9 "/>
  <polyline fill="none" stroke="black" stroke-width="0.9" stroke-miterlimit="22.9256" points="1399.21,559.23 1379.21,440.81 1277.66,389.57 1203.29,350.51 1195.17,340.51 1077.99,260.21 1030.19,210.21 1046.12,175.53 1038.31,143.03 1038.62,142.09 1018,116.16 966.13,120.54 945.82,113.04 952.07,93.98 949.26,65.86 "/>
  <polyline fill="none" stroke="black" stroke-width="0.9" stroke-miterlimit="22.9256" points="735.23,266.46 766.78,233.33 866.46,211.78 901.14,180.53 934.58,152.72 945.82,113.04 "/>
  <polyline fill="none" stroke="black" stroke-width="0.9" stroke-miterlimit="22.9256" points="934.58,152.72 883.65,105.23 860.21,65.86 "/>
  <polyline fill="none" stroke="black" stroke-width="0.9" stroke-miterlimit="22.9256" points="901.14,180.53 951.45,199.28 1030.19,210.21 "/>
  <polyline fill="none" stroke="black" stroke-width="0.9" stroke-miterlimit="22.9256" points="1277.66,389.57 1241.88,403.78 1192.75,460.96 1132.36,472.84 "/>
  <polyline fill="none" stroke="black" stroke-width="0.9" stroke-miterlimit="22.9256" points="401.38,162.01 609.23,332.07 652.66,367.22 733.28,424.09 767.58,448.54 812.88,462.44 904.75,444.95 1081.91,465.02 "/>
  <polyline fill="none" stroke="black" stroke-width="0.9" stroke-miterlimit="22.9256" points="904.75,444.95 949.74,487.12 986.14,538.52 980.21,603.2 937.09,698.92 "/>
  <line fill="none" stroke="black" stroke-width="0.9" stroke-miterlimit="22.9256" x1="1060.81" y1="686.4" x2="928.03" y2= "690.93" />
  <polyline fill="none" stroke="black" stroke-width="0.9" stroke-miterlimit="22.9256" points="986.14,538.52 1054.1,533.34 1128,543.99 1086.29,603.05 1064.57,575.55 1054.1,533.34 "/>
  <line fill="none" stroke="black" stroke-width="0.9" stroke-miterlimit="22.9256" x1="1086.29" y1="603.05" x2="1112.53" y2= "640.47" />
  <line fill="none" stroke="black" stroke-width="0.9" stroke-miterlimit="22.9256" x1="637.06" y1="1679.49" x2="664.16" y2= "1662.6" />
  <polyline fill="none" stroke="black" stroke-width="0.9" stroke-miterlimit="22.9256" points="42.68,1107.05 102.05,1185.16 103.3,1185.16 144.86,1199.23 122.28,1270.74 "/>
  <polyline fill="none" stroke="black" stroke-width="0.9" stroke-miterlimit="22.9256" points="50.18,930.82 135.18,991.6 249.54,1066.28 346.72,1123.06 431.07,1147.51 492.64,1236.26 627,1269.38 674.49,1275.94 705.61,1329.68 786.35,1355.62 931.02,1382.8 "/>
  <path fill="none" stroke="black" stroke-width="0.9" stroke-miterlimit="22.9256" d="M998.31 1352.41l-71.04 25.39 -13.75 10.94 -52.18 68.43 -53.74 28.43 -24.06 4.68 -35 84.06 -2.5 92.8 34.39 37.25m59.47 4.37l50.5 -59.12 44.99 -26.56 18.05 79.53"/>
  <polyline fill="none" stroke="black" stroke-width="0.9" stroke-miterlimit="22.9256" points="160.12,1330.33 215.65,1330.06 267.2,1398.57 324.23,1411.22 302.36,1428.72 282.67,1444.27 250.93,1447.97 "/>
  <polyline fill="none" stroke="black" stroke-width="0.9" stroke-miterlimit="22.9256" points="428.68,1590.35 439.37,1571.44 435,1543.87 371.26,1473.01 358.45,1438.96 302.36,1428.72 "/>
  <polyline fill="none" stroke="black" stroke-width="0.9" stroke-miterlimit="22.9256" points="358.45,1438.96 426.88,1434.58 462.5,1406.77 508.74,1391.46 526.24,1370.84 546.55,1355.21 582.17,1330.53 627,1269.38 "/>
  <polyline fill="none" stroke="black" stroke-width="0.9" stroke-miterlimit="22.9256" points="144.86,1199.23 187.21,1186.48 283.77,1209.6 358.45,1235.23 382.51,1283.34 519.37,1354.17 572.48,1390.83 611.23,1394.58 655.6,1397.71 705.61,1329.68 "/>
  <polyline fill="none" stroke="black" stroke-width="0.9" stroke-miterlimit="22.9256" points="655.6,1397.71 712.47,1460.86 783.54,1490.28 "/>
  <polyline fill="none" stroke="black" stroke-width="0.9" stroke-miterlimit="22.9256" points="786.35,1355.62 790.24,1393.02 819.14,1428.02 861.34,1457.17 "/>
  <polyline fill="none" stroke="black" stroke-width="0.9" stroke-miterlimit="22.9256" points="611.23,1394.58 609.64,1465.2 627.14,1519.1 629.33,1520.81 683.85,1528.47 701.35,1555.97 748.54,1574.34 "/>
  <polyline fill="none" stroke="black" stroke-width="0.9" stroke-miterlimit="22.9256" points="746.04,1667.14 807.28,1655.95 872.17,1608.15 937.58,1522.85 "/>
  <line fill="none" stroke="black" stroke-width="0.9" stroke-miterlimit="22.9256" x1="324.23" y1="1411.22" x2="382.51" y2= "1283.34" />
  <polyline fill="none" stroke="black" stroke-width="0.9" stroke-miterlimit="22.9256" points="35.04,789.19 50.18,815.75 116.28,832.93 158.77,847.62 270.01,947.29 530.91,1101.65 547.16,1138.83 694.02,1202.89 728.7,1202.89 850.88,1266.01 "/>
  <polyline fill="none" stroke="black" stroke-width="0.9" stroke-miterlimit="22.9256" points="766.2,1134.46 749.33,1177.58 728.7,1202.89 "/>
  <polyline fill="none" stroke="black" stroke-width="0.9" stroke-miterlimit="22.9256" points="674.49,1275.94 699.96,1243.82 694.02,1202.89 "/>
  <polyline fill="none" stroke="black" stroke-width="0.9" stroke-miterlimit="22.9256" points="431.07,1147.51 513.11,1150.4 547.16,1138.83 "/>
  <polyline fill="none" stroke="black" stroke-width="0.9" stroke-miterlimit="22.9256" points="931.02,1382.8 989.93,1482.54 1093.66,1647.52 1092.69,1675.48 "/>
  <line fill="none" stroke="black" stroke-width="0.9" stroke-miterlimit="22.9256" x1="1093.66" y1="1647.52" x2="1115.8" y2= "1667.36" />
  <line fill="none" stroke="black" stroke-width="0.9" stroke-miterlimit="22.9256" x1="1592.66" y1="1223.2" x2="1614.44" y2= "1238.16" />
  <polyline fill="none" stroke="black" stroke-width="0.9" stroke-miterlimit="22.9256" points="1439.56,1442.55 1442.99,1415.37 1471.74,1370.68 1492.68,1306.63 "/>
  <polyline fill="none" stroke="black" stroke-width="0.9" stroke-miterlimit="22.9256" points="1332.07,1351.31 1396.44,1290.38 1414.25,1286.32 1454.87,1276.32 "/>
  <line fill="none" stroke="black" stroke-width="0.9" stroke-miterlimit="22.9256" x1="1414.25" y1="1286.32" x2="1423.62" y2= "1434.11" />
  <polyline fill="none" stroke="black" stroke-width="0.9" stroke-miterlimit="22.9256" points="1039.87,1423.03 1053.66,1416.3 1173.96,1313.82 1225.52,1292.26 1250.2,1239.14 1208.25,1197.04 1161.62,1152.98 1117.72,1161.26 1025.03,1105.9 968.34,1070.83 934.59,1043.8 856.63,982.87 830.54,960.84 822.41,960.37 792.89,917.56 772.11,888.97 726.33,824.92 715.08,799.61 683.84,731.49 628.06,709.31 540.41,676.81 444.33,669.47 363.54,678.43 "/>
  <polyline fill="none" stroke="black" stroke-width="0.9" stroke-miterlimit="22.9256" points="1250.2,1239.14 1393.47,1168.67 1463.73,1140.35 1475.14,1128.16 1525.29,1123.06 1569.66,1123.06 1659.69,1122.71 "/>
  <polyline fill="none" stroke="black" stroke-width="0.9" stroke-miterlimit="22.9256" points="1569.66,1123.06 1477.68,998.18 1453.73,969.75 1399.99,923.5 1390.93,917.25 1357.64,860.38 1218.14,822.58 1205.64,803.2 1192.83,782.58 1077.22,653.54 "/>
  <polyline fill="none" stroke="black" stroke-width="0.9" stroke-miterlimit="22.9256" points="792.89,917.56 813.03,885.23 819.75,846.79 836.31,832.57 871.93,820.23 1016.44,786.64 1192.83,782.58 "/>
  <line fill="none" stroke="black" stroke-width="0.9" stroke-miterlimit="22.9256" x1="856.63" y1="982.87" x2="919.73" y2= "895.06" />
  <polyline fill="none" stroke="black" stroke-width="0.9" stroke-miterlimit="22.9256" points="843.33,1112.13 879.42,1106.91 895.36,1105.35 1027.53,1033.1 1057.21,982.87 "/>
  <line fill="none" stroke="black" stroke-width="0.9" stroke-miterlimit="22.9256" x1="879.42" y1="1106.91" x2="880.82" y2= "1153.37" />
  <polyline fill="none" stroke="black" stroke-width="0.9" stroke-miterlimit="22.9256" points="930.51,1173.06 938.4,1170.58 986.13,1135.35 1025.03,1105.9 "/>
  <polyline fill="none" stroke="black" stroke-width="0.9" stroke-miterlimit="22.9256" points="952.06,1230.86 977.77,1214.24 1001.12,1217.37 1038.93,1237.06 "/>
  <line fill="none" stroke="black" stroke-width="0.9" stroke-miterlimit="22.9256" x1="1117.72" y1="1161.26" x2="1107.98" y2= "1257.68" />
  <polyline fill="none" stroke="black" stroke-width="0.9" stroke-miterlimit="22.9256" points="1208.25,1197.04 1331.55,1131.6 1394.98,1116.45 1434.04,1087.7 1441.38,1069.58 1423.1,984.9 1399.99,923.5 "/>
  <line fill="none" stroke="black" stroke-width="0.9" stroke-miterlimit="22.9256" x1="772.11" y1="888.97" x2="763.81" y2= "976.93" />
  <line fill="none" stroke="black" stroke-width="0.9" stroke-miterlimit="22.9256" x1="116.08" y1="557.92" x2="116.7" y2= "478.24" />
  <polyline fill="none" stroke="black" stroke-width="0.9" stroke-miterlimit="22.9256" points="123.89,471.68 150.45,453.56 210.44,423.87 268.25,414.5 297.93,416.37 375.11,419.81 410.42,430.43 421.35,449.5 511.97,446.06 586.02,481.05 634.14,481.68 692.57,481.68 776.31,521.36 776.31,518.76 "/>
  <polyline fill="none" stroke="black" stroke-width="0.9" stroke-miterlimit="22.9256" points="634.14,481.68 629.77,610.1 646.02,701.31 643.52,751.96 658.66,834.19 "/>
  <line fill="none" stroke="black" stroke-width="0.9" stroke-miterlimit="22.9256" x1="174.81" y1="607.81" x2="187.95" y2= "521.36" />
  <polyline fill="none" stroke="black" stroke-width="0.9" stroke-miterlimit="22.9256" points="308.54,628.43 292.94,570.42 286.69,491.68 "/>
  <line fill="none" stroke="black" stroke-width="0.9" stroke-miterlimit="22.9256" x1="297.93" y1="416.37" x2="299.66" y2= "489.18" />
  <line fill="none" stroke="black" stroke-width="0.9" stroke-miterlimit="22.9256" x1="675.38" y1="842.78" x2="715.08" y2= "799.61" />
  <polyline fill="none" stroke="black" stroke-width="0.9" stroke-miterlimit="22.9256" points="1453.73,969.75 1481.71,955.21 1508.58,941.15 1539.82,891.47 1562.63,820.54 1614.5,813.04 1661.69,751.8 1690.08,728.42 "/>
  <line fill="none" stroke="black" stroke-width="0.9" stroke-miterlimit="22.9256" x1="1569.66" y1="739.94" x2="1688.87" y2= "738.69" />
  <polyline fill="none" stroke="black" stroke-width="0.9" stroke-miterlimit="22.9256" points="1447.65,871.48 1457.96,902.42 1481.71,955.21 "/>
  <polyline fill="none" stroke="black" stroke-width="0.9" stroke-miterlimit="22.9256" points="1021.77,895.07 1096.14,895.07 1151.75,857.74 1205.64,803.2 "/>
  <line fill="none" stroke="black" stroke-width="0.9" stroke-miterlimit="22.9256" x1="1475.14" y1="1128.16" x2="1441.38" y2= "1069.58" />
  <polyline fill="none" stroke="black" stroke-width="0.9" stroke-miterlimit="22.9256" points="733.28,424.09 713.68,312.54 719.31,266.46 "/>
  <polyline fill="none" stroke="black" stroke-width="0.9" stroke-miterlimit="22.9256" points="652.66,367.22 633.06,294.21 629.63,234.22 636.97,202.82 "/>
  <polyline fill="none" stroke="black" stroke-width="0.9" stroke-miterlimit="22.9256" points="634.79,55.39 638.22,67.06 619.79,133.61 560.11,186.42 585.41,234.54 609.23,332.07 "/>
  <polyline fill="none" stroke="black" stroke-width="0.9" stroke-miterlimit="22.9256" points="750.08,28.94 744.15,62.37 755.08,94.55 764.77,124.86 795.08,185.17 792.02,185.17 "/>
  <polyline fill="none" stroke="black" stroke-width="0.9" stroke-miterlimit="22.9256" points="755.08,94.55 748.21,123.93 739.15,180.53 739.4,180.53 "/>
  <line fill="none" stroke="black" stroke-width="0.9" stroke-miterlimit="22.9256" x1="1286.41" y1="596.73" x2="1192.83" y2= "502.63" />
  <line fill="none" stroke="black" stroke-width="0.9" stroke-miterlimit="22.9256" x1="1217.67" y1="615.16" x2="1215.65" y2= "549.68" />
  <polyline fill="none" stroke="black" stroke-width="0.9" stroke-miterlimit="22.9256" points="1108.95,166.05 1163.78,189.75 1164.79,189.75 "/>
 </g>
</svg>
