<?xml version="1.0" encoding="UTF-8"?>
<!DOCTYPE svg PUBLIC "-//W3C//DTD SVG 1.1//EN" "http://www.w3.org/Graphics/SVG/1.1/DTD/svg11.dtd">
<!-- Creator: CorelDRAW 2019 (64-Bit) -->
<svg xmlns="http://www.w3.org/2000/svg" xml:space="preserve" width="8.26772in" height="11.6929in" version="1.1" shape-rendering="geometricPrecision" text-rendering="geometricPrecision" image-rendering="optimizeQuality" fill-rule="evenodd" clip-rule="evenodd"
viewBox="0 0 8267.72 11692.91"
 xmlns:xlink="http://www.w3.org/1999/xlink">
 <g id="Layer_x0020_1">
  <metadata id="CorelCorpID_0Corel-Layer"/>
  <polyline fill="none" stroke="black" stroke-width="3" stroke-miterlimit="2.61313" points="1485.81,3302.02 1712.89,3269.73 1716.02,3269.73 1889.98,3387.44 2266.02,3448.9 2335.81,3456.19 2519.15,3622.86 2651.44,3740.57 2907.69,3899.94 3312.91,4042.13 3503.02,4142.13 3558.75,4170.78 3723.87,4405.16 3869.7,4565.57 3961.37,4561.41 4118.66,5068.7 4149.91,5166.62 4243.66,5206.2 4409.29,5271.83 4481.16,5464.54 4635.33,5869.75 4739.5,6078.08 4773.87,6105.17 5175.96,6422.88 5237.42,6570.8 5355.13,6664.55 5510.33,6745.8 5708.25,6766.63 5804.09,6827.05 5833.25,6940.59 "/>
  <polyline fill="none" stroke="black" stroke-width="3" stroke-miterlimit="2.61313" points="1461.4,1918.7 2300.98,2218.7 2715.57,2593.7 3205.15,2618.7 3784.32,2983.28 4059.32,3379.12 4465.57,3679.12 4648.91,3904.12 4755.16,3879.12 4800.99,3689.54 4843.7,3649.43 5016.1,3496.31 5366.63,3411.94 5595.8,3350.48 5899.96,3258.81 5971.84,3225.48 6515.59,2943.19 7018.72,2922.35 "/>
  <polyline fill="none" stroke="black" stroke-width="3" stroke-miterlimit="2.61313" points="5971.84,3225.48 5905.16,2830.69 5566.61,2659.86 5318.69,2529.65 5291.61,2496.31 4900.98,2228.61 4741.61,2061.94 4794.73,1946.31 4768.69,1837.98 4769.73,1834.85 4700.98,1748.39 4528.06,1762.98 4460.35,1737.98 4481.19,1674.43 4471.81,1580.69 "/>
  <polyline fill="none" stroke="black" stroke-width="3" stroke-miterlimit="2.61313" points="3758.28,2249.44 3863.48,2139.02 4195.78,2067.15 4311.4,1962.98 4422.86,1870.27 4460.35,1737.98 "/>
  <polyline fill="none" stroke="black" stroke-width="3" stroke-miterlimit="2.61313" points="4422.86,1870.27 4253.07,1711.94 4174.94,1580.69 "/>
  <polyline fill="none" stroke="black" stroke-width="3" stroke-miterlimit="2.61313" points="4311.4,1962.98 4479.11,2025.48 4741.61,2061.94 "/>
  <polyline fill="none" stroke="black" stroke-width="3" stroke-miterlimit="2.61313" points="5566.61,2659.86 5447.35,2707.25 5283.54,2897.88 5082.23,2937.46 "/>
  <polyline fill="none" stroke="black" stroke-width="3" stroke-miterlimit="2.61313" points="1476.47,1626.52 2025.43,1699.43 2170.23,1718.7 2503.06,1784.84 3338.24,2468.19 3483.03,2585.37 3751.79,2774.95 3866.12,2856.46 4017.16,2902.81 4323.41,2844.48 4914.04,2911.41 "/>
  <polyline fill="none" stroke="black" stroke-width="3" stroke-miterlimit="2.61313" points="4323.41,2844.48 4473.41,2985.09 4594.77,3156.44 4574.98,3372.07 4431.24,3691.17 "/>
  <line fill="none" stroke="black" stroke-width="3" stroke-miterlimit="2.61313" x1="4843.7" y1="3649.43" x2="4401.02" y2= "3664.52" />
  <polyline fill="none" stroke="black" stroke-width="3" stroke-miterlimit="2.61313" points="4594.77,3156.44 4821.33,3139.18 5067.7,3174.68 4928.63,3371.56 4856.23,3279.89 4821.33,3139.18 "/>
  <line fill="none" stroke="black" stroke-width="3" stroke-miterlimit="2.61313" x1="4928.63" y1="3371.56" x2="5016.1" y2= "3496.31" />
  <polyline fill="none" stroke="black" stroke-width="3" stroke-miterlimit="2.61313" points="1581.76,7151.78 1522.39,6913.23 1471.34,6722.61 "/>
  <polyline fill="none" stroke="black" stroke-width="3" stroke-miterlimit="2.61313" points="1522.39,6913.23 2007.81,6859.07 2177.6,6819.48 2551.56,6826.78 2634.89,6842.4 2704.69,6855.94 2968.23,6969.48 3171.35,6989.28 3289.06,7048.65 3521.35,6903.86 "/>
  <polyline fill="none" stroke="black" stroke-width="3" stroke-miterlimit="2.61313" points="1449.49,5051.77 1647.41,5312.19 1651.57,5312.19 1790.12,5359.07 1666.16,5751.78 1657.82,5920.52 1641.16,6394.48 1779.7,6662.19 2154.7,6940.59 2705.74,7017.41 2744.29,7125.74 "/>
  <polyline fill="none" stroke="black" stroke-width="3" stroke-miterlimit="2.61313" points="1809.91,6508.04 1974.49,6671.58 2119.28,6765.33 2177.6,6819.48 "/>
  <polyline fill="none" stroke="black" stroke-width="3" stroke-miterlimit="2.61313" points="1449.49,6114.28 1551.57,6262.2 1672.41,6312.2 "/>
  <polyline fill="none" stroke="black" stroke-width="3" stroke-miterlimit="2.61313" points="1474.5,4464.28 1757.87,4666.89 2139.12,4915.85 2463.08,5105.16 2744.29,5186.68 2949.54,5482.52 3397.46,5592.93 3555.8,5614.81 3659.53,5793.98 3928.71,5880.44 4411,5971.06 "/>
  <polyline fill="none" stroke="black" stroke-width="3" stroke-miterlimit="2.61313" points="4635.33,5869.75 4398.5,5954.39 4352.67,5990.85 4178.71,6218.98 3999.55,6313.77 3919.34,6329.39 3802.67,6609.6 3794.34,6918.98 3969.34,7108.56 4055.8,7117.94 4275.59,6860.65 4425.59,6772.11 4509.96,7143.98 "/>
  <polyline fill="none" stroke="black" stroke-width="3" stroke-miterlimit="2.61313" points="1474.5,5698.89 1562.57,5780.93 1696.95,5796.81 2026.13,5795.25 2198,6023.63 2388.11,6065.82 2315.19,6124.15 2249.57,6175.98 1930.3,6213.24 1657.82,5920.52 "/>
  <polyline fill="none" stroke="black" stroke-width="3" stroke-miterlimit="2.61313" points="2634.89,6842.4 2771.97,6599.94 2757.39,6508.04 2544.89,6271.81 2502.18,6158.27 2315.19,6124.15 "/>
  <polyline fill="none" stroke="black" stroke-width="3" stroke-miterlimit="2.61313" points="2502.18,6158.27 2730.31,6143.69 2849.06,6050.98 3003.22,5999.93 3061.56,5931.19 3129.27,5879.1 3248.02,5796.81 3397.46,5592.93 "/>
  <polyline fill="none" stroke="black" stroke-width="3" stroke-miterlimit="2.61313" points="1790.12,5359.07 1931.31,5316.59 2253.22,5393.67 2502.18,5479.09 2582.39,5639.5 3038.65,5875.6 3215.73,5997.84 3344.89,6010.34 3492.81,6020.76 3659.53,5793.98 "/>
  <polyline fill="none" stroke="black" stroke-width="3" stroke-miterlimit="2.61313" points="3492.81,6020.76 3682.4,6231.31 3919.34,6329.39 "/>
  <polyline fill="none" stroke="black" stroke-width="3" stroke-miterlimit="2.61313" points="3928.71,5880.44 3941.67,6005.13 4038.03,6121.8 4178.71,6218.98 "/>
  <polyline fill="none" stroke="black" stroke-width="3" stroke-miterlimit="2.61313" points="3344.89,6010.34 3339.61,6245.76 3397.94,6425.44 3405.24,6431.17 3587.01,6456.69 3645.34,6548.36 3802.67,6609.6 "/>
  <polyline fill="none" stroke="black" stroke-width="3" stroke-miterlimit="2.61313" points="3794.34,6918.98 3998.48,6881.69 4214.83,6722.32 4432.86,6437.94 "/>
  <line fill="none" stroke="black" stroke-width="3" stroke-miterlimit="2.61313" x1="2388.11" y1="6065.82" x2="2582.39" y2= "5639.5" />
  <polyline fill="none" stroke="black" stroke-width="3" stroke-miterlimit="2.61313" points="1424.02,3992.1 1474.5,4080.65 1694.85,4137.94 1836.52,4186.9 2207.35,4519.19 3077.15,5033.78 3131.32,5157.74 3620.91,5371.28 3736.53,5371.28 4143.82,5581.7 "/>
  <polyline fill="none" stroke="black" stroke-width="3" stroke-miterlimit="2.61313" points="3861.53,5143.15 3805.28,5286.9 3736.53,5371.28 "/>
  <polyline fill="none" stroke="black" stroke-width="3" stroke-miterlimit="2.61313" points="3555.8,5614.81 3640.7,5507.74 3620.91,5371.28 "/>
  <polyline fill="none" stroke="black" stroke-width="3" stroke-miterlimit="2.61313" points="2744.29,5186.68 3017.79,5196.28 3131.32,5157.74 "/>
  <polyline fill="none" stroke="black" stroke-width="3" stroke-miterlimit="2.61313" points="4411,5971.06 4607.39,6303.57 4953.22,6853.57 4943.85,7122.33 "/>
  <line fill="none" stroke="black" stroke-width="3" stroke-miterlimit="2.61313" x1="4953.22" y1="6853.57" x2="5277.19" y2= "7143.98" />
  <polyline fill="none" stroke="black" stroke-width="3" stroke-miterlimit="2.61313" points="7006.35,6569.2 6319.89,6561.91 5833.25,6940.59 5512.6,7143.98 "/>
  <polyline fill="none" stroke="black" stroke-width="3" stroke-miterlimit="2.61313" points="6991.76,5525.45 6923.01,5761.91 6752.18,5916.08 6641.76,6018.16 "/>
  <polyline fill="none" stroke="black" stroke-width="3" stroke-miterlimit="2.61313" points="6752.18,5916.08 6965.72,6265.04 7006.35,6326.5 "/>
  <polyline fill="none" stroke="black" stroke-width="3" stroke-miterlimit="2.61313" points="6616.76,5439 6769.88,5544.2 6991.76,5609.83 7019.88,5649.41 "/>
  <polyline fill="none" stroke="black" stroke-width="3" stroke-miterlimit="2.61313" points="6106.34,6170.26 6117.8,6079.63 6213.63,5930.67 6283.43,5717.13 "/>
  <polyline fill="none" stroke="black" stroke-width="3" stroke-miterlimit="2.61313" points="5748.01,5866.09 5962.59,5662.96 6021.97,5649.41 6157.39,5616.09 "/>
  <line fill="none" stroke="black" stroke-width="3" stroke-miterlimit="2.61313" x1="6021.97" y1="5649.41" x2="6053.22" y2= "6142.13" />
  <polyline fill="none" stroke="black" stroke-width="3" stroke-miterlimit="2.61313" points="4773.87,6105.17 4819.87,6082.76 5220.92,5741.09 5392.8,5669.22 5475.09,5492.13 5335.23,5351.78 5179.76,5204.91 5033.41,5232.51 4724.41,5047.94 4535.41,4931.02 4422.9,4840.92 4163,4637.79 4076.02,4564.35 4048.94,4562.79 3950.5,4420.08 3881.23,4324.76 3728.62,4111.22 3691.12,4026.84 3586.95,3799.76 3401.01,3725.8 3108.82,3617.46 2788.5,3592.98 2519.15,3622.86 "/>
  <polyline fill="none" stroke="black" stroke-width="3" stroke-miterlimit="2.61313" points="5475.09,5492.13 5952.7,5257.22 6186.95,5162.79 6224.97,5122.17 6392.16,5105.16 6540.08,5105.16 6991.76,5103.41 "/>
  <polyline fill="none" stroke="black" stroke-width="3" stroke-miterlimit="2.61313" points="6540.08,5105.16 6233.43,4688.83 6153.6,4594.04 5974.44,4439.87 5944.23,4419.04 5833.25,4229.45 5368.18,4103.41 5326.52,4038.83 5283.81,3970.08 4898.39,3539.87 "/>
  <polyline fill="none" stroke="black" stroke-width="3" stroke-miterlimit="2.61313" points="3950.5,4420.08 4017.65,4312.27 4040.04,4184.14 4095.25,4136.74 4214,4095.6 4695.78,3983.62 5283.81,3970.08 "/>
  <line fill="none" stroke="black" stroke-width="3" stroke-miterlimit="2.61313" x1="4163" y1="4637.79" x2="4373.37" y2= "4345.07" />
  <polyline fill="none" stroke="black" stroke-width="3" stroke-miterlimit="2.61313" points="4118.66,5068.7 4238.99,5051.33 4292.11,5046.12 4732.74,4805.24 4831.7,4637.79 "/>
  <line fill="none" stroke="black" stroke-width="3" stroke-miterlimit="2.61313" x1="4238.99" y1="5051.33" x2="4243.66" y2= "5206.2" />
  <polyline fill="none" stroke="black" stroke-width="3" stroke-miterlimit="2.61313" points="4409.29,5271.83 4435.6,5263.57 4594.72,5146.12 4724.41,5047.94 "/>
  <polyline fill="none" stroke="black" stroke-width="3" stroke-miterlimit="2.61313" points="4481.16,5464.54 4566.85,5409.14 4644.71,5419.56 4770.76,5485.19 "/>
  <line fill="none" stroke="black" stroke-width="3" stroke-miterlimit="2.61313" x1="5033.41" y1="5232.51" x2="5000.96" y2= "5553.94" />
  <polyline fill="none" stroke="black" stroke-width="3" stroke-miterlimit="2.61313" points="5335.23,5351.78 5746.28,5133.62 5957.74,5083.1 6087.95,4987.26 6112.43,4926.85 6051.49,4644.55 5974.44,4439.87 "/>
  <line fill="none" stroke="black" stroke-width="3" stroke-miterlimit="2.61313" x1="3881.23" y1="4324.76" x2="3853.56" y2= "4617.98" />
  <line fill="none" stroke="black" stroke-width="3" stroke-miterlimit="2.61313" x1="1694.19" y1="3221.11" x2="1696.27" y2= "2955.48" />
  <polyline fill="none" stroke="black" stroke-width="3" stroke-miterlimit="2.61313" points="1720.22,2933.6 1808.77,2873.19 2008.77,2774.23 2201.48,2742.98 2300.44,2749.23 2557.73,2760.69 2675.44,2796.1 2711.9,2859.65 3013.98,2848.19 3260.86,2964.85 3421.28,2966.94 3616.07,2966.94 3895.24,3099.23 3895.24,3090.57 "/>
  <polyline fill="none" stroke="black" stroke-width="3" stroke-miterlimit="2.61313" points="3421.28,2966.94 3406.71,3395.07 3460.88,3699.15 3452.54,3867.99 3503.02,4142.13 "/>
  <line fill="none" stroke="black" stroke-width="3" stroke-miterlimit="2.61313" x1="1889.98" y1="3387.44" x2="1933.8" y2= "3099.23" />
  <polyline fill="none" stroke="black" stroke-width="3" stroke-miterlimit="2.61313" points="2335.81,3456.19 2283.79,3262.78 2262.96,3000.28 "/>
  <line fill="none" stroke="black" stroke-width="3" stroke-miterlimit="2.61313" x1="2300.44" y1="2749.23" x2="2306.2" y2= "2991.94" />
  <line fill="none" stroke="black" stroke-width="3" stroke-miterlimit="2.61313" x1="3558.75" y1="4170.78" x2="3691.12" y2= "4026.84" />
  <polyline fill="none" stroke="black" stroke-width="3" stroke-miterlimit="2.61313" points="6153.6,4594.04 6246.86,4545.59 6336.44,4498.72 6440.61,4333.09 6516.65,4096.63 6689.57,4071.63 6846.87,3867.47 7006.24,3736.22 "/>
  <line fill="none" stroke="black" stroke-width="3" stroke-miterlimit="2.61313" x1="6540.08" y1="3827.91" x2="6937.5" y2= "3823.74" />
  <polyline fill="none" stroke="black" stroke-width="3" stroke-miterlimit="2.61313" points="6133.33,4266.45 6167.71,4369.58 6246.86,4545.59 "/>
  <polyline fill="none" stroke="black" stroke-width="3" stroke-miterlimit="2.61313" points="4713.54,4345.07 4961.46,4345.07 5146.88,4220.63 5326.52,4038.83 "/>
  <line fill="none" stroke="black" stroke-width="3" stroke-miterlimit="2.61313" x1="6224.97" y1="5122.17" x2="6112.43" y2= "4926.85" />
  <polyline fill="none" stroke="black" stroke-width="3" stroke-miterlimit="2.61313" points="3751.79,2774.95 3686.45,2403.08 3705.2,2249.44 "/>
  <polyline fill="none" stroke="black" stroke-width="3" stroke-miterlimit="2.61313" points="3483.03,2585.37 3417.69,2341.98 3406.23,2141.98 3430.71,2037.29 "/>
  <polyline fill="none" stroke="black" stroke-width="3" stroke-miterlimit="2.61313" points="3390.09,1432.61 3434.89,1584.69 3373.43,1806.57 3174.47,1982.61 3258.84,2143.03 3338.24,2468.19 "/>
  <polyline fill="none" stroke="black" stroke-width="3" stroke-miterlimit="2.61313" points="1783.84,1407.61 2014.05,1531.56 2225.51,1469.06 "/>
  <line fill="none" stroke="black" stroke-width="3" stroke-miterlimit="2.61313" x1="2014.05" y1="1531.56" x2="2025.43" y2= "1699.43" />
  <polyline fill="none" stroke="black" stroke-width="3" stroke-miterlimit="2.61313" points="2815.09,1419.06 2722.39,1519.06 2716.14,1806.57 "/>
  <polyline fill="none" stroke="black" stroke-width="3" stroke-miterlimit="2.61313" points="3807.8,1457.61 3788.01,1569.07 3824.47,1676.36 3856.76,1777.4 3957.8,1978.44 3947.62,1978.44 "/>
  <polyline fill="none" stroke="black" stroke-width="3" stroke-miterlimit="2.61313" points="3824.47,1676.36 3801.55,1774.28 3771.34,1962.98 3772.18,1962.98 "/>
  <line fill="none" stroke="black" stroke-width="3" stroke-miterlimit="2.61313" x1="4843.23" y1="1445.11" x2="4985.94" y2= "1423.24" />
  <polyline fill="none" stroke="black" stroke-width="3" stroke-miterlimit="2.61313" points="5639.07,1426.36 5894.28,1698.24 6267.19,1977.4 6624.49,2063.86 6711.99,2085.74 6746.36,2128.44 6932.82,2389.91 6940.11,2403.08 "/>
  <polyline fill="none" stroke="black" stroke-width="3" stroke-miterlimit="2.61313" points="6792.2,2152.41 6776.57,2249.28 6773.44,2533.65 6805.74,2782.61 6890.11,2898.24 6940.11,2953.45 6992.2,3000.32 "/>
  <polyline fill="none" stroke="black" stroke-width="3" stroke-miterlimit="2.61313" points="6805.74,2782.61 6903.65,2798.24 6992.2,2791.99 "/>
  <line fill="none" stroke="black" stroke-width="3" stroke-miterlimit="2.61313" x1="6267.19" y1="1977.4" x2="6365.12" y2= "1707.62" />
  <polyline fill="none" stroke="black" stroke-width="3" stroke-miterlimit="2.61313" points="6624.49,2063.86 6558.87,1918.7 6317.2,1707.62 6183.87,1445.11 "/>
  <polyline fill="none" stroke="black" stroke-width="3" stroke-miterlimit="2.61313" points="6365.12,1445.11 6440.12,1611.79 6902.62,1938.87 6746.36,2128.44 "/>
  <polyline fill="none" stroke="black" stroke-width="3" stroke-miterlimit="2.61313" points="6992.2,1580.69 6902.62,1754.49 6902.62,1938.87 "/>
  <line fill="none" stroke="black" stroke-width="3" stroke-miterlimit="2.61313" x1="5595.8" y1="3350.48" x2="5283.81" y2= "3036.79" />
  <line fill="none" stroke="black" stroke-width="3" stroke-miterlimit="2.61313" x1="5366.63" y1="3411.94" x2="5359.89" y2= "3193.64" />
  <polyline fill="none" stroke="black" stroke-width="3" stroke-miterlimit="2.61313" points="5004.17,1914.72 5186.98,1993.71 5190.34,1993.71 "/>
 </g>
</svg>
