<?xml version="1.0" encoding="UTF-8"?>
<!DOCTYPE svg PUBLIC "-//W3C//DTD SVG 1.1//EN" "http://www.w3.org/Graphics/SVG/1.1/DTD/svg11.dtd">
<!-- Creator: CorelDRAW 2021 (64-Bit) -->
<svg xmlns="http://www.w3.org/2000/svg" xml:space="preserve" width="1606px" height="1748px" version="1.1" shape-rendering="geometricPrecision" text-rendering="geometricPrecision" image-rendering="optimizeQuality" fill-rule="evenodd" clip-rule="evenodd"
viewBox="0 0 1606 1747.71"
 xmlns:xlink="http://www.w3.org/1999/xlink"
 xmlns:xodm="http://www.corel.com/coreldraw/odm/2003">
 <g id="Layer_x0020_1">
  <metadata id="CorelCorpID_0Corel-Layer"/>
  <polyline fill="none" stroke="black" stroke-width="0.9" stroke-miterlimit="22.9256" points="46.89,991.12 54.7,959.88 77.51,869.59 99.07,745.54 101.64,530.05 "/>
  <polyline fill="none" stroke="black" stroke-width="0.9" stroke-miterlimit="22.9256" points="269.37,1395.3 270.09,1363.78 298.37,1321.13 251.98,1183.66 260.92,1057 235.69,1037.01 178.2,1004.82 169.45,968.43 207.42,793.85 175.24,740.74 99.07,745.54 "/>
  <polyline fill="none" stroke="black" stroke-width="0.9" stroke-miterlimit="22.9256" points="579.8,1576.28 593.75,1495.6 698.74,1367.18 727.79,1282.67 751.54,1242.67 753.73,1185.65 757.48,1106.61 763.75,988.97 791.03,790.37 837.7,569.04 863.96,338.19 931.13,239.22 937.3,172.05 941.88,86.94 "/>
  <path fill="none" stroke="black" stroke-width="0.9" stroke-miterlimit="22.9256" d="M410.53 908.56l-15.63 128.11 -12.49 108.1 -23.75 174.35 -2.59 147.76m38.33 27.07l199.35 1.65"/>
  <polyline fill="none" stroke="black" stroke-width="0.9" stroke-miterlimit="22.9256" points="963.25,1591.79 955.36,1570.98 974.11,1534.11 959.66,1438.5 958.65,1391.01 959.89,1348.2 888.34,1308.52 919.28,1236.35 931.77,1205.11 935.21,1122.62 984.89,1047.64 999.57,996.71 1013.63,947.34 1063,783.62 1123.61,725.82 1078.62,549.29 1048.63,447.75 1044.56,369.32 1026.44,231.23 1071.12,195.29 "/>
  <polyline fill="none" stroke="black" stroke-width="0.9" stroke-miterlimit="22.9256" points="937.3,172.05 1026.44,231.23 1020.19,483.68 996.45,523.05 945.73,574.91 888.34,638.03 880.22,727.07 911.31,790.34 "/>
  <polyline fill="none" stroke="black" stroke-width="0.9" stroke-miterlimit="22.9256" points="945.73,574.91 1075.19,573.98 1148.31,565.54 "/>
  <polyline fill="none" stroke="black" stroke-width="0.9" stroke-miterlimit="22.9256" points="235.69,1037.01 331.42,955 352.83,940.32 410.53,908.56 557.95,835.34 579.82,827.84 676.05,802.53 704.17,796.28 760.1,775.97 "/>
  <polyline fill="none" stroke="black" stroke-width="0.9" stroke-miterlimit="22.9256" points="464.22,449.79 432.66,371.99 462.97,317.94 534.52,147.96 675.04,172.41 750.66,284.78 713.48,360.7 702.47,531.53 699.5,587.3 745.43,642.91 837.7,569.04 "/>
  <line fill="none" stroke="black" stroke-width="0.9" stroke-miterlimit="22.9256" x1="745.43" y1="642.91" x2="676.05" y2= "802.53" />
  <polyline fill="none" stroke="black" stroke-width="0.9" stroke-miterlimit="22.9256" points="462.97,317.94 458.3,295.09 464.24,219.79 424.56,206.04 327.07,408.82 303.95,593.15 313.25,731.88 327.07,759.77 375.66,796.79 567.85,830.65 512.01,919.16 493.74,995.08 691.68,1226.92 753.73,1185.65 "/>
  <line fill="none" stroke="black" stroke-width="0.9" stroke-miterlimit="22.9256" x1="691.68" y1="1226.92" x2="698.74" y2= "1367.18" />
  <polyline fill="none" stroke="black" stroke-width="0.9" stroke-miterlimit="22.9256" points="313.25,731.88 264.12,726.22 271.15,877.29 350.04,955.56 396.91,993.99 493.74,995.08 "/>
  <line fill="none" stroke="black" stroke-width="0.9" stroke-miterlimit="22.9256" x1="303.95" y1="593.15" x2="178.98" y2= "515.01" />
  <polyline fill="none" stroke="black" stroke-width="0.9" stroke-miterlimit="22.9256" points="199.24,1317.15 223.28,1299.24 247.57,1311.9 270.09,1363.78 "/>
  <line fill="none" stroke="black" stroke-width="0.9" stroke-miterlimit="22.9256" x1="298.37" y1="1321.13" x2="358.66" y2= "1319.12" />
  <polyline fill="none" stroke="black" stroke-width="0.9" stroke-miterlimit="22.9256" points="627.88,1587.67 678.29,1491.96 728.59,1444.46 728.59,1438.84 797.95,1307.62 751.54,1242.67 "/>
  <line fill="none" stroke="black" stroke-width="0.9" stroke-miterlimit="22.9256" x1="797.95" y1="1307.62" x2="888.34" y2= "1308.52" />
  <line fill="none" stroke="black" stroke-width="0.9" stroke-miterlimit="22.9256" x1="869.27" y1="1379.87" x2="958.65" y2= "1391.01" />
  <line fill="none" stroke="black" stroke-width="0.9" stroke-miterlimit="22.9256" x1="928.8" y1="1485.94" x2="955.36" y2= "1570.98" />
  <polyline fill="none" stroke="black" stroke-width="0.9" stroke-miterlimit="22.9256" points="1044.63,1569.56 1052.22,1553.74 1015.66,1534.05 959.66,1438.5 "/>
  <line fill="none" stroke="black" stroke-width="0.9" stroke-miterlimit="22.9256" x1="1052.22" y1="1553.74" x2="1066.7" y2= "1561.5" />
  <polyline fill="none" stroke="black" stroke-width="0.9" stroke-miterlimit="22.9256" points="1326.81,1396.08 1322.95,1375.72 1288.64,1329.81 1270.51,1304.5 1163.19,1253.72 1153.03,1181.78 1167.55,998.22 1200.51,984.17 1191.45,924.64 1182.39,872.15 1158.02,835.44 1154.12,776.55 1063,783.62 "/>
  <path fill="none" stroke="black" stroke-width="0.9" stroke-miterlimit="22.9256" d="M999.57 996.71l12.38 133.13 33.12 109.04 -9.38 86.86 -1.25 43.12 0.47 19.37 -0.78 111.39 28.28 63.63m4.22 9.48l-0.49 0"/>
  <polyline fill="none" stroke="black" stroke-width="0.9" stroke-miterlimit="22.9256" points="1298.74,1419.88 1250.97,1379.87 1188.48,1369.17 1142.24,1364.8 1075.53,1382.14 1034.91,1388.23 "/>
  <polyline fill="none" stroke="black" stroke-width="0.9" stroke-miterlimit="22.9256" points="1188.48,1369.17 1203.48,1314.03 1238.94,1276.54 1259.25,1248.73 1311.58,1181.4 1338.1,1147.34 1386.26,1053.6 1478.58,855.52 1517.01,827.55 1561.06,796.62 "/>
  <polyline fill="none" stroke="black" stroke-width="0.9" stroke-miterlimit="22.9256" points="1075.53,1382.14 1110.91,1297.39 1111.22,1265.21 1163.19,1253.72 "/>
  <line fill="none" stroke="black" stroke-width="0.9" stroke-miterlimit="22.9256" x1="1045.07" y1="1238.88" x2="1153.03" y2= "1181.78" />
  <polyline fill="none" stroke="black" stroke-width="0.9" stroke-miterlimit="22.9256" points="1467.63,1213.73 1472.56,1196.32 1477.4,1125.63 1473.18,1090.63 1496.69,899.34 1517.01,827.55 "/>
  <polyline fill="none" stroke="black" stroke-width="0.9" stroke-miterlimit="22.9256" points="1044.56,369.32 1120.09,369.47 1149.61,393.99 1085.56,457.73 1048.63,447.75 "/>
  <polyline fill="none" stroke="black" stroke-width="0.9" stroke-miterlimit="22.9256" points="1149.61,393.99 1389.8,428.83 1426.75,497.1 1435.5,574.91 1415.5,615.83 1415.81,661.13 "/>
  <line fill="none" stroke="black" stroke-width="0.9" stroke-miterlimit="22.9256" x1="1435.5" y1="574.91" x2="1493.61" y2= "611.14" />
  <path fill="none" stroke="black" stroke-width="0.9" stroke-miterlimit="22.9256" d="M752.47 74.45l35.97 56.16 -75.08 -51.87m-147.65 30.19l-31.19 39.03"/>
  <polyline fill="none" stroke="black" stroke-width="0.9" stroke-miterlimit="22.9256" points="788.44,130.61 844.92,221.53 781.18,345.88 702.47,531.53 "/>
  <polyline fill="none" stroke="black" stroke-width="0.9" stroke-miterlimit="22.9256" points="844.92,221.53 753.73,204.35 726.67,159.04 "/>
  <line fill="none" stroke="black" stroke-width="0.9" stroke-miterlimit="22.9256" x1="781.18" y1="345.88" x2="863.96" y2= "338.19" />
  <line fill="none" stroke="black" stroke-width="0.9" stroke-miterlimit="22.9256" x1="327.07" y1="408.82" x2="318.46" y2= "303.39" />
  <polyline fill="none" stroke="black" stroke-width="0.9" stroke-miterlimit="22.9256" points="757.48,1106.61 812.6,1089.81 853.22,1042.63 891.64,1064.66 935.21,1122.62 "/>
  <line fill="none" stroke="black" stroke-width="0.9" stroke-miterlimit="22.9256" x1="891.64" y1="1064.66" x2="984.89" y2= "1047.64" />
  <line fill="none" stroke="black" stroke-width="0.9" stroke-miterlimit="22.9256" x1="763.75" y1="988.97" x2="853.22" y2= "1042.63" />
  <polyline fill="none" stroke="black" stroke-width="0.9" stroke-miterlimit="22.9256" points="1013.63,947.34 915.08,930.31 824.22,832.97 791.03,790.37 "/>
  <polyline fill="none" stroke="black" stroke-width="0.9" stroke-miterlimit="22.9256" points="1259.25,1248.73 1379.61,1259.54 1412.42,1267.04 1432.6,1270.79 "/>
  <path fill="none" stroke="black" stroke-width="0.9" stroke-miterlimit="22.9256" d="M1288.64 1329.81l95.7 4.32m28.27 -34.21l4.81 -8.51 -5 -24.37"/>
  <line fill="none" stroke="black" stroke-width="0.9" stroke-miterlimit="22.9256" x1="1473.18" y1="1090.63" x2="1504.79" y2= "1133.92" />
  <polyline fill="none" stroke="black" stroke-width="0.9" stroke-miterlimit="22.9256" points="1478.58,855.52 1447.25,770.73 1470.21,719.33 1531.45,657.47 1532.83,627.58 "/>
  <polyline fill="none" stroke="black" stroke-width="0.9" stroke-miterlimit="22.9256" points="1158.02,835.44 1093.25,927.26 1013.63,927.26 "/>
  <line fill="none" stroke="black" stroke-width="0.9" stroke-miterlimit="22.9256" x1="1129.49" y1="967.34" x2="1191.45" y2= "924.64" />
  <polyline fill="none" stroke="black" stroke-width="0.9" stroke-miterlimit="22.9256" points="1267.28,909.14 1313.21,985.06 1386.26,1053.6 "/>
  <line fill="none" stroke="black" stroke-width="0.9" stroke-miterlimit="22.9256" x1="919.28" y1="1236.35" x2="1035.69" y2= "1325.74" />
  <line fill="none" stroke="black" stroke-width="0.9" stroke-miterlimit="22.9256" x1="977.48" y1="1414.68" x2="1034.44" y2= "1368.86" />
  <polyline fill="none" stroke="black" stroke-width="0.9" stroke-miterlimit="22.9256" points="1354.44,369.32 1368.81,343.94 1371.14,332.6 "/>
 </g>
</svg>
