<?xml version="1.0" encoding="UTF-8"?>
<!DOCTYPE svg PUBLIC "-//W3C//DTD SVG 1.1//EN" "http://www.w3.org/Graphics/SVG/1.1/DTD/svg11.dtd">
<!-- Creator: CorelDRAW 2019 (64-Bit) -->
<svg xmlns="http://www.w3.org/2000/svg" xml:space="preserve" width="8.26772in" height="11.6929in" version="1.1" shape-rendering="geometricPrecision" text-rendering="geometricPrecision" image-rendering="optimizeQuality" fill-rule="evenodd" clip-rule="evenodd"
viewBox="0 0 8267.72 11692.91"
 xmlns:xlink="http://www.w3.org/1999/xlink">
 <g id="Layer_x0020_1">
  <metadata id="CorelCorpID_0Corel-Layer"/>
  <polyline fill="none" stroke="black" stroke-width="3" stroke-miterlimit="2.61313" points="1532.78,4799.26 1558.82,4695.1 1634.86,4394.06 1706.74,3980.51 1715.6,3238.31 1676.02,3160.97 1992.17,2582.84 2003.11,2403.67 2138.53,1857.83 2201.04,1551.58 "/>
  <line fill="none" stroke="black" stroke-width="3" stroke-miterlimit="2.61313" x1="2138.53" y1="1857.83" x2="2413.02" y2= "1576.59" />
  <line fill="none" stroke="black" stroke-width="3" stroke-miterlimit="2.61313" x1="2003.11" y1="2403.67" x2="1651.57" y2= "2603.69" />
  <line fill="none" stroke="black" stroke-width="3" stroke-miterlimit="2.61313" x1="1468.51" y1="3232.34" x2="1676.02" y2= "3160.97" />
  <polyline fill="none" stroke="black" stroke-width="3" stroke-miterlimit="2.61313" points="2678.43,6475.57 2645.65,7109.96 2412.31,7058.39 2262.31,6685.47 2276.92,6041.69 2371.2,5899.5 2216.53,5441.17 2246.35,5018.9 2162.24,4952.23 1970.58,4844.94 1941.41,4723.59 2067.99,4141.56 1960.7,3964.48 1706.74,3980.51 "/>
  <polyline fill="none" stroke="black" stroke-width="3" stroke-miterlimit="2.61313" points="3003.93,7197.82 3192.47,7036.36 3298.72,6812.4 3356.01,6481.15 3706.01,6053.02 3802.89,5771.25 3882.06,5637.92 3889.35,5447.81 3901.86,5184.28 3922.77,4792.09 4013.71,4129.96 4169.33,3392.06 4256.86,2622.4 4480.8,2292.46 4501.37,2068.51 4529.49,1546.37 "/>
  <polyline fill="none" stroke="black" stroke-width="3" stroke-miterlimit="2.61313" points="2745.13,4524.01 2693.05,4951.1 2651.38,5311.52 2572.22,5892.77 2561.8,6486.52 2678.43,6475.57 3356.01,6481.15 "/>
  <polyline fill="none" stroke="black" stroke-width="3" stroke-miterlimit="2.61313" points="4558.47,7293.94 4639.72,6938.73 4561.6,6732.48 4624.1,6609.56 4575.93,6290.8 4572.54,6132.46 4576.7,5989.75 4338.16,5857.46 4441.28,5616.83 4482.95,5512.67 4494.41,5237.67 4660.02,4987.68 4708.98,4817.88 4755.86,4653.3 4920.44,4107.46 5122.53,3914.76 4972.53,3326.21 4872.53,2987.67 4858.98,2726.21 4798.57,2265.79 4947.53,2146 "/>
  <polyline fill="none" stroke="black" stroke-width="3" stroke-miterlimit="2.61313" points="4501.37,2068.51 4798.57,2265.79 4777.73,3107.46 4698.57,3238.71 4529.49,3411.63 4338.16,3622.05 4311.07,3918.92 4414.71,4129.86 "/>
  <polyline fill="none" stroke="black" stroke-width="3" stroke-miterlimit="2.61313" points="4529.49,3411.63 4961.11,3408.51 5204.86,3380.38 "/>
  <polyline fill="none" stroke="black" stroke-width="3" stroke-miterlimit="2.61313" points="2162.24,4952.23 2481.41,4678.83 2552.76,4629.87 2745.13,4524.01 3236.63,4279.87 3309.54,4254.87 3630.38,4170.5 3724.13,4149.67 3910.59,4081.96 "/>
  <polyline fill="none" stroke="black" stroke-width="3" stroke-miterlimit="2.61313" points="2924.15,2994.46 2818.94,2735.09 2919.98,2554.88 3158.52,1988.2 3627.02,2069.72 3879.12,2444.33 3755.16,2697.45 3718.45,3266.98 3708.55,3452.93 3861.68,3638.34 4169.33,3392.06 "/>
  <line fill="none" stroke="black" stroke-width="3" stroke-miterlimit="2.61313" x1="3861.68" y1="3638.34" x2="3630.38" y2= "4170.5" />
  <polyline fill="none" stroke="black" stroke-width="3" stroke-miterlimit="2.61313" points="2919.98,2554.88 2904.41,2478.7 2924.2,2227.66 2791.91,2181.83 2466.9,2857.87 2389.82,3472.45 2420.81,3934.96 2466.91,4027.93 2628.89,4151.37 3269.66,4264.26 3083.47,4559.33 3022.55,4812.46 3682.48,5585.38 3889.35,5447.81 "/>
  <line fill="none" stroke="black" stroke-width="3" stroke-miterlimit="2.61313" x1="3682.48" y1="5585.38" x2="3706.01" y2= "6053.02" />
  <polyline fill="none" stroke="black" stroke-width="3" stroke-miterlimit="2.61313" points="2420.81,3934.96 2257.01,3916.09 2280.45,4419.74 2543.47,4680.69 2699.72,4808.81 3022.55,4812.46 "/>
  <line fill="none" stroke="black" stroke-width="3" stroke-miterlimit="2.61313" x1="2389.82" y1="3472.45" x2="1973.16" y2= "3211.93" />
  <polyline fill="none" stroke="black" stroke-width="3" stroke-miterlimit="2.61313" points="1508.6,6065.84 1813.29,6055.69 2120.85,5826.52 2201.84,5868.71 2276.92,6041.69 "/>
  <line fill="none" stroke="black" stroke-width="3" stroke-miterlimit="2.61313" x1="2371.2" y1="5899.5" x2="2572.22" y2= "5892.77" />
  <polyline fill="none" stroke="black" stroke-width="3" stroke-miterlimit="2.61313" points="1826.37,7237.76 1814.91,6907.55 1884.71,6912.76 "/>
  <polyline fill="none" stroke="black" stroke-width="3" stroke-miterlimit="2.61313" points="3298.72,6812.4 3422.22,6878.38 3637.85,6469.01 3805.56,6310.67 3805.56,6291.93 4036.8,5854.43 3882.06,5637.92 "/>
  <line fill="none" stroke="black" stroke-width="3" stroke-miterlimit="2.61313" x1="4036.8" y1="5854.43" x2="4338.16" y2= "5857.46" />
  <line fill="none" stroke="black" stroke-width="3" stroke-miterlimit="2.61313" x1="4274.57" y1="6095.31" x2="4572.54" y2= "6132.46" />
  <line fill="none" stroke="black" stroke-width="3" stroke-miterlimit="2.61313" x1="4473.02" y1="6448.95" x2="4561.6" y2= "6732.48" />
  <polyline fill="none" stroke="black" stroke-width="3" stroke-miterlimit="2.61313" points="4176.16,7070.83 4402.2,7071.87 4558.47,7293.94 "/>
  <polyline fill="none" stroke="black" stroke-width="3" stroke-miterlimit="2.61313" points="4761.58,7197.82 4769.91,6989.57 4768.87,6909.37 4824.08,6801.04 4884.5,6674.99 4762.62,6609.37 4575.93,6290.8 "/>
  <polyline fill="none" stroke="black" stroke-width="3" stroke-miterlimit="2.61313" points="4884.5,6674.99 5073.04,6776.03 5280.33,7052.07 "/>
  <polyline fill="none" stroke="black" stroke-width="3" stroke-miterlimit="2.61313" points="5122.53,7197.82 5145.95,7107.28 5303.24,7009.37 5492.83,7021.87 5478.24,7136.45 "/>
  <polyline fill="none" stroke="black" stroke-width="3" stroke-miterlimit="2.61313" points="5492.83,7021.87 5758.45,6604.15 5837.62,6347.91 5787.1,6081.49 5672.72,5928.41 5612.3,5844.04 5254.48,5674.76 5220.61,5434.9 5269.02,4822.93 5378.92,4776.06 5348.71,4577.62 5318.5,4402.62 5237.25,4280.22 5224.23,4083.87 4920.44,4107.46 "/>
  <polyline fill="none" stroke="black" stroke-width="3" stroke-miterlimit="2.61313" points="4708.98,4817.88 4750.25,5261.73 4860.67,5625.27 4829.41,5914.86 4825.25,6058.61 4826.81,6123.2 4824.21,6494.56 4932.54,6738.31 4930.93,6738.31 "/>
  <polyline fill="none" stroke="black" stroke-width="3" stroke-miterlimit="2.61313" points="5758.45,6604.15 5757.56,6426.33 5728.39,6247.16 5547.14,6095.31 5338.8,6059.66 5184.64,6045.07 4962.24,6102.89 4826.81,6123.2 "/>
  <polyline fill="none" stroke="black" stroke-width="3" stroke-miterlimit="2.61313" points="5338.8,6059.66 5388.8,5875.81 5507.03,5750.81 5574.74,5658.1 5749.22,5433.62 5837.62,5320.08 5998.18,5007.57 6305.98,4347.15 6434.1,4253.92 6580.97,4150.8 "/>
  <polyline fill="none" stroke="black" stroke-width="3" stroke-miterlimit="2.61313" points="4962.24,6102.89 5080.19,5820.34 5081.23,5713.05 5254.48,5674.76 "/>
  <line fill="none" stroke="black" stroke-width="3" stroke-miterlimit="2.61313" x1="4860.67" y1="5625.27" x2="5220.61" y2= "5434.9" />
  <polyline fill="none" stroke="black" stroke-width="3" stroke-miterlimit="2.61313" points="5999.44,7158.36 6217.16,6800.03 6324.45,6620.86 6290.6,6433.87 6379.13,6133.35 6344.5,5944.04 6273.67,5843.77 6212.46,5742.74 6285.9,5483.37 6302.04,5247.69 6287.98,5131.02 6366.36,4493.26 6434.1,4253.92 "/>
  <polyline fill="none" stroke="black" stroke-width="3" stroke-miterlimit="2.61313" points="5629.38,7197.82 5767.93,7025.8 5968.18,6995.78 5968.38,6995.78 5989.02,6850.86 6003.6,6757.11 6024.42,6625.07 5837.62,6347.91 "/>
  <polyline fill="none" stroke="black" stroke-width="3" stroke-miterlimit="2.61313" points="4858.98,2726.21 5110.78,2726.68 5209.22,2808.45 4995.67,3020.96 4872.53,2987.67 "/>
  <polyline fill="none" stroke="black" stroke-width="3" stroke-miterlimit="2.61313" points="5209.22,2808.45 6010,2924.6 6133.19,3152.21 6162.35,3411.63 6095.69,3548.04 6096.72,3699.09 "/>
  <line fill="none" stroke="black" stroke-width="3" stroke-miterlimit="2.61313" x1="6162.35" y1="3411.63" x2="6356.1" y2= "3532.42" />
  <polyline fill="none" stroke="black" stroke-width="3" stroke-miterlimit="2.61313" points="3489.43,1574.08 3817.06,1636.84 4005.07,1930.33 3489.43,1574.08 3158.52,1988.2 "/>
  <polyline fill="none" stroke="black" stroke-width="3" stroke-miterlimit="2.61313" points="4005.07,1930.33 4193.37,2233.46 3980.89,2648.05 3718.45,3266.98 "/>
  <polyline fill="none" stroke="black" stroke-width="3" stroke-miterlimit="2.61313" points="4193.37,2233.46 3889.35,2176.19 3799.13,2025.14 "/>
  <line fill="none" stroke="black" stroke-width="3" stroke-miterlimit="2.61313" x1="3980.89" y1="2648.05" x2="4256.86" y2= "2622.4" />
  <line fill="none" stroke="black" stroke-width="3" stroke-miterlimit="2.61313" x1="2466.9" y1="2857.87" x2="2438.2" y2= "2506.4" />
  <polyline fill="none" stroke="black" stroke-width="3" stroke-miterlimit="2.61313" points="3901.86,5184.28 4085.62,5128.28 4221.04,4970.99 4349.16,5044.43 4494.41,5237.67 "/>
  <line fill="none" stroke="black" stroke-width="3" stroke-miterlimit="2.61313" x1="4349.16" y1="5044.43" x2="4660.02" y2= "4987.68" />
  <line fill="none" stroke="black" stroke-width="3" stroke-miterlimit="2.61313" x1="3922.77" y1="4792.09" x2="4221.04" y2= "4970.99" />
  <polyline fill="none" stroke="black" stroke-width="3" stroke-miterlimit="2.61313" points="4755.86,4653.3 4427.31,4596.51 4124.37,4271.98 4013.71,4129.96 "/>
  <polyline fill="none" stroke="black" stroke-width="3" stroke-miterlimit="2.61313" points="5989.02,6850.86 6068.98,6865.25 6120.02,6927.75 6183.56,6941.3 6417.94,6935.05 6500.23,7009.37 6532.52,7021.87 6667.94,7021.87 "/>
  <line fill="none" stroke="black" stroke-width="3" stroke-miterlimit="2.61313" x1="6328.48" y1="7197.82" x2="6535.65" y2= "7009.37" />
  <line fill="none" stroke="black" stroke-width="3" stroke-miterlimit="2.61313" x1="6473.15" y1="7215.26" x2="6523.15" y2= "6993.38" />
  <line fill="none" stroke="black" stroke-width="3" stroke-miterlimit="2.61313" x1="6074.2" y1="7197.82" x2="6142.43" y2= "6900.14" />
  <polyline fill="none" stroke="black" stroke-width="3" stroke-miterlimit="2.61313" points="6595.93,6535.82 6563.26,6605.09 6478.11,6634.26 6417.94,6935.05 "/>
  <polyline fill="none" stroke="black" stroke-width="3" stroke-miterlimit="2.61313" points="6324.45,6620.86 6456.23,6570.2 6620.81,6259.78 6580.97,6045.07 "/>
  <line fill="none" stroke="black" stroke-width="3" stroke-miterlimit="2.61313" x1="6620.81" y1="6259.78" x2="6703.11" y2= "6276.44" />
  <line fill="none" stroke="black" stroke-width="3" stroke-miterlimit="2.61313" x1="6003.6" y1="6757.11" x2="6290.6" y2= "6433.87" />
  <polyline fill="none" stroke="black" stroke-width="3" stroke-miterlimit="2.61313" points="5574.74,5658.1 5976.03,5694.16 6085.4,5719.16 6212.46,5742.74 "/>
  <polyline fill="none" stroke="black" stroke-width="3" stroke-miterlimit="2.61313" points="5672.72,5928.41 6020.82,5944.16 6102.07,5800.41 6085.4,5719.16 "/>
  <polyline fill="none" stroke="black" stroke-width="3" stroke-miterlimit="2.61313" points="6287.98,5131.02 6396.85,5280.1 6406.23,5410.31 6398.93,5700.42 6273.67,5843.77 "/>
  <line fill="none" stroke="black" stroke-width="3" stroke-miterlimit="2.61313" x1="6398.93" y1="5700.42" x2="6548.94" y2= "5843.77" />
  <line fill="none" stroke="black" stroke-width="3" stroke-miterlimit="2.61313" x1="6640.6" y1="5498.33" x2="6406.23" y2= "5410.31" />
  <polyline fill="none" stroke="black" stroke-width="3" stroke-miterlimit="2.61313" points="6305.98,4347.15 6201.52,4064.48 6278.08,3893.12 6482.25,3686.87 6511.41,3056.66 6564.01,2810.82 "/>
  <polyline fill="none" stroke="black" stroke-width="3" stroke-miterlimit="2.61313" points="5237.25,4280.22 5021.29,4586.35 4755.86,4586.35 "/>
  <line fill="none" stroke="black" stroke-width="3" stroke-miterlimit="2.61313" x1="5142.12" y1="4719.97" x2="5348.71" y2= "4577.62" />
  <polyline fill="none" stroke="black" stroke-width="3" stroke-miterlimit="2.61313" points="5601.5,4525.93 5754.63,4779.06 5998.18,5007.57 "/>
  <line fill="none" stroke="black" stroke-width="3" stroke-miterlimit="2.61313" x1="4441.28" y1="5616.83" x2="4829.41" y2= "5914.86" />
  <line fill="none" stroke="black" stroke-width="3" stroke-miterlimit="2.61313" x1="4635.35" y1="6211.37" x2="4825.25" y2= "6058.61" />
  <polyline fill="none" stroke="black" stroke-width="3" stroke-miterlimit="2.61313" points="5145.95,7107.28 4905.65,6948.87 4824.08,6801.04 "/>
  <line fill="none" stroke="black" stroke-width="3" stroke-miterlimit="2.61313" x1="4905.65" y1="6948.87" x2="4769.91" y2= "6989.57" />
  <polyline fill="none" stroke="black" stroke-width="3" stroke-miterlimit="2.61313" points="5892.11,2726.21 5940.02,2641.58 5993.15,2383.24 6300.44,2109.29 6546.28,1831.17 "/>
  <polyline fill="none" stroke="black" stroke-width="3" stroke-miterlimit="2.61313" points="6565.02,2456.17 6431.69,2267.63 6298.36,2042.62 "/>
  <polyline fill="none" stroke="black" stroke-width="3" stroke-miterlimit="2.61313" points="6183.77,2571.79 6180.65,2385.33 6353.57,2024.91 "/>
  <polyline fill="none" stroke="black" stroke-width="3" stroke-miterlimit="2.61313" points="5993.15,2383.24 6252.52,1891.58 6253.56,1609.29 "/>
 </g>
</svg>
