<?xml version="1.0" encoding="UTF-8"?>
<!DOCTYPE svg PUBLIC "-//W3C//DTD SVG 1.1//EN" "http://www.w3.org/Graphics/SVG/1.1/DTD/svg11.dtd">
<!-- Creator: CorelDRAW 2021 (64-Bit) -->
<svg xmlns="http://www.w3.org/2000/svg" xml:space="preserve" width="1535px" height="1535px" version="1.1" shape-rendering="geometricPrecision" text-rendering="geometricPrecision" image-rendering="optimizeQuality" fill-rule="evenodd" clip-rule="evenodd"
viewBox="0 0 1535 1535"
 xmlns:xlink="http://www.w3.org/1999/xlink"
 xmlns:xodm="http://www.corel.com/coreldraw/odm/2003">
 <g id="Layer_x0020_1">
  <metadata id="CorelCorpID_0Corel-Layer"/>
  <polyline fill="none" stroke="black" stroke-width="0.9" stroke-miterlimit="22.9256" points="775.54,470.14 982.98,428.27 1086.08,392.66 1223.54,391.41 1365.76,322.98 "/>
  <polyline fill="none" stroke="black" stroke-width="0.9" stroke-miterlimit="22.9256" points="1085.46,204.58 1084.04,209.26 1056.72,299.56 1086.08,392.66 "/>
  <path fill="none" stroke="black" stroke-width="0.9" stroke-miterlimit="22.9256" d="M860.19 23.75l0 0 -69.65 162.4 -49.05 95.29 -10.3 84.04 -4.38 34.68 -76.54 148.08 -73.11 142.46 -40.3 124.65 -24.99 73.42 -54.98 83.41 -189.04 332.17m129.35 95.58l148.72 -61.76 200.57 -74.98 78.73 -29.99 41.24 -11.87 97.47 -89.97 58.11 -45.62 72.48 -28.11 61.23 -12.5 44.37 -5.62 6.87 -32.49"/>
  <polyline fill="none" stroke="black" stroke-width="0.9" stroke-miterlimit="22.9256" points="187.73,291.45 295.38,384.07 363.48,440.3 420.97,488.41 465.96,537.15 577.16,690.7 "/>
  <polyline fill="none" stroke="black" stroke-width="0.9" stroke-miterlimit="22.9256" points="203.39,271.4 209.16,328.46 233.52,401.57 242.27,499.66 292.88,780.84 307.72,845.97 "/>
  <polyline fill="none" stroke="black" stroke-width="0.9" stroke-miterlimit="22.9256" points="536.86,815.35 484.7,813.48 431.44,822.85 378.48,830.51 320.06,841.44 307.72,845.97 267.73,856.13 152.29,971.72 65.88,1001.91 "/>
  <polyline fill="none" stroke="black" stroke-width="0.9" stroke-miterlimit="22.9256" points="86.18,1052.27 112.47,1077.16 136.83,1107.15 204.64,1241.53 "/>
  <polyline fill="none" stroke="black" stroke-width="0.9" stroke-miterlimit="22.9256" points="395.97,1398.81 343.65,1319.59 256.17,1173.22 182.45,1034.04 152.29,971.72 "/>
  <polyline fill="none" stroke="black" stroke-width="0.9" stroke-miterlimit="22.9256" points="103.42,421.16 102.47,521.69 99.35,604.16 126.21,661.03 158.7,719.13 183.7,752.54 267.73,856.13 "/>
  <polyline fill="none" stroke="black" stroke-width="0.9" stroke-miterlimit="22.9256" points="126.21,661.03 170.59,655.79 211.2,702.82 183.7,752.54 "/>
  <polyline fill="none" stroke="black" stroke-width="0.9" stroke-miterlimit="22.9256" points="622.42,1477.87 622.42,1477.87 576.11,1352.01 558.61,1256.41 576.11,1055.84 575.48,1035.22 545.49,993.36 456.89,972.18 "/>
  <polyline fill="none" stroke="black" stroke-width="0.9" stroke-miterlimit="22.9256" points="1283.22,1272.3 1189.5,1154.83 1062.66,1136.71 951.44,1078.61 720.26,980.51 552.8,902.41 511.87,888.77 "/>
  <path fill="none" stroke="black" stroke-width="0.9" stroke-miterlimit="22.9256" d="M1511.74 931.5l0 0m-28.01 3.3l-108.97 12.83 0.63 58.11 -121.22 1.25 -47.18 0.03 -29.67 -11.9 -15.62 -106.35 -25 -76.73 -16.87 -32.49 -32.49 -50.61 -16.87 -82.48"/>
  <polyline fill="none" stroke="black" stroke-width="0.9" stroke-miterlimit="22.9256" points="1254.17,1006.99 1252.92,1046.66 1189.19,1102.27 1189.5,1154.83 "/>
  <polyline fill="none" stroke="black" stroke-width="0.9" stroke-miterlimit="22.9256" points="1316.03,931.07 1283.22,965.44 1254.17,951.38 1258.54,875.78 1227.3,784.24 1277.6,773.93 1309.47,741.75 1266.04,703.95 1206.99,685.52 1206.99,623.66 "/>
  <polyline fill="none" stroke="black" stroke-width="0.9" stroke-miterlimit="22.9256" points="1258.54,875.78 1347.27,884.21 1374.76,947.63 "/>
  <polyline fill="none" stroke="black" stroke-width="0.9" stroke-miterlimit="22.9256" points="1070.47,646.46 1206.99,623.66 1460.61,585.99 1485.88,582.24 "/>
  <polyline fill="none" stroke="black" stroke-width="0.9" stroke-miterlimit="22.9256" points="650.27,548.24 714.48,564.93 771.34,583.36 829.13,606.32 899.9,636.47 959.41,574.61 982.22,563.99 1025.33,590.08 1070.47,646.46 "/>
  <polyline fill="none" stroke="black" stroke-width="0.9" stroke-miterlimit="22.9256" points="775.54,470.14 805.08,410.6 820.7,298.62 790.09,256.27 790.54,186.15 "/>
 </g>
</svg>
