<?xml version="1.0" encoding="UTF-8"?>
<!DOCTYPE svg PUBLIC "-//W3C//DTD SVG 1.1//EN" "http://www.w3.org/Graphics/SVG/1.1/DTD/svg11.dtd">
<!-- Creator: CorelDRAW 2021 (64-Bit) -->
<svg xmlns="http://www.w3.org/2000/svg" xml:space="preserve" width="130mm" height="130mm" version="1.1" shape-rendering="geometricPrecision" text-rendering="geometricPrecision" image-rendering="optimizeQuality" fill-rule="evenodd" clip-rule="evenodd"
viewBox="0 0 13000 13000"
 xmlns:xlink="http://www.w3.org/1999/xlink"
 xmlns:xodm="http://www.corel.com/coreldraw/odm/2003">
 <g id="Layer_x0020_1">
  <metadata id="CorelCorpID_0Corel-Layer"/>
  <polyline fill="none" stroke="black" stroke-width="7.62" stroke-miterlimit="22.9256" points="6568.11,3981.6 8324.95,3627.07 9198.08,3325.44 10362.23,3314.85 12045.01,2505.23 12526.72,2404.5 12627.07,2383.51 "/>
  <polyline fill="none" stroke="black" stroke-width="7.62" stroke-miterlimit="22.9256" points="9192.79,1732.63 9180.81,1772.23 8949.39,2536.98 9198.08,3325.44 "/>
  <polyline fill="none" stroke="black" stroke-width="7.62" stroke-miterlimit="22.9256" points="7285.01,201.14 7285.01,201.14 6695.14,1576.53 6279.75,2383.51 6192.45,3095.24 6155.39,3388.94 5507.16,4643.07 4888.03,5849.56 4546.71,6905.26 4335.05,7527.03 3869.39,8233.48 2115.17,11315.89 1422,12687.75 2326.87,12216.78 3094.16,11968.06 4623.46,11333.06 6322.09,10698.06 6988.84,10444.07 7338.09,10343.53 8163.61,9581.53 8655.74,9195.22 9269.55,8957.1 9788.14,8851.26 10163.86,8803.66 10222.05,8528.48 "/>
  <polyline fill="none" stroke="black" stroke-width="7.62" stroke-miterlimit="22.9256" points="607.14,1501.14 1554.36,2437.76 2501.55,3252.67 3078.36,3728.92 3565.2,4136.39 3946.2,4549.14 4888.03,5849.56 "/>
  <polyline fill="none" stroke="black" stroke-width="7.62" stroke-miterlimit="22.9256" points="1303.12,170.37 1303.12,170.37 1575.57,845.01 1771.35,2781.76 1977.73,3400.88 2051.82,4231.69 2480.42,6612.94 2606.1,7164.6 "/>
  <polyline fill="none" stroke="black" stroke-width="7.62" stroke-miterlimit="22.9256" points="4546.71,6905.26 4104.95,6889.41 3653.85,6968.79 3205.36,7033.61 2710.59,7126.22 2606.1,7164.6 2267.41,7250.58 1289.79,8229.52 354.54,8556.29 230.59,8599.58 230.59,8599.58 "/>
  <polyline fill="none" stroke="black" stroke-width="7.62" stroke-miterlimit="22.9256" points="354.54,8556.29 952.48,9122.5 1158.83,9376.5 1740.92,10530.09 2115.17,11315.89 "/>
  <polyline fill="none" stroke="black" stroke-width="7.62" stroke-miterlimit="22.9256" points="3855.69,12606.92 3855.69,12606.92 2910.39,11175.69 2169.55,9936.09 1545.14,8757.38 1289.79,8229.52 "/>
  <polyline fill="none" stroke="black" stroke-width="7.62" stroke-miterlimit="22.9256" points="678.94,219.04 678.94,219.04 607.14,1501.14 883.7,2730.17 867.82,4418.2 841.38,5116.7 1068.92,5598.26 1344.07,6090.36 1555.76,6373.29 2267.41,7250.58 "/>
  <polyline fill="none" stroke="black" stroke-width="7.62" stroke-miterlimit="22.9256" points="1068.92,5598.26 1444.71,5553.96 1788.7,5952.18 1555.76,6373.29 "/>
  <polyline fill="none" stroke="black" stroke-width="7.62" stroke-miterlimit="22.9256" points="5271.27,12516.17 5271.27,12516.17 4879.09,11450.23 4730.91,10640.58 4879.09,8941.96 4873.78,8767.34 4619.78,8412.8 3869.39,8233.48 "/>
  <polyline fill="none" stroke="black" stroke-width="7.62" stroke-miterlimit="22.9256" points="12778.44,11887.49 12778.44,11887.49 11550.29,11156.2 "/>
  <polyline fill="none" stroke="black" stroke-width="7.62" stroke-miterlimit="22.9256" points="10867.69,10775.2 10073.92,9780.36 8999.7,9626.9 8057.8,9134.8 6099.89,8303.99 4681.71,7642.52 4335.05,7527.03 "/>
  <polyline fill="none" stroke="black" stroke-width="7.62" stroke-miterlimit="22.9256" points="12803.05,7888.94 12803.05,7888.94 11642.95,8025.5 11648.23,8517.63 10621.64,8528.22 10222.05,8528.48 9970.77,8427.69 9838.46,7527.03 9626.8,6877.22 9483.93,6602.04 9208.77,6173.44 9065.9,5474.92 "/>
  <polyline fill="none" stroke="black" stroke-width="7.62" stroke-miterlimit="22.9256" points="10621.64,8528.22 10611.05,8864.26 10071.3,9335.2 10073.92,9780.36 "/>
  <polyline fill="none" stroke="black" stroke-width="7.62" stroke-miterlimit="22.9256" points="11145.49,7885.32 10867.69,8176.36 10621.64,8057.28 10658.68,7417 10394.09,6641.76 10820.07,6554.46 11089.94,6281.95 10722.18,5961.78 10222.05,5805.67 10222.05,5281.8 "/>
  <polyline fill="none" stroke="black" stroke-width="7.62" stroke-miterlimit="22.9256" points="10658.68,7417 11410.08,7488.45 11642.95,8025.5 "/>
  <polyline fill="none" stroke="black" stroke-width="7.62" stroke-miterlimit="22.9256" points="9065.9,5474.92 10222.05,5281.8 12370.01,4962.82 12627.07,4924.65 "/>
  <polyline fill="none" stroke="black" stroke-width="7.62" stroke-miterlimit="22.9256" points="5507.16,4643.07 6050.94,4784.42 6532.48,4940.53 7021.98,5134.99 7621.27,5390.31 8125.28,4866.43 8318.45,4776.49 8683.57,4997.42 9065.9,5474.92 "/>
  <polyline fill="none" stroke="black" stroke-width="7.62" stroke-miterlimit="22.9256" points="6568.11,3981.6 6818.28,3477.38 6950.56,2529.05 6691.28,2170.35 6695.14,1576.53 "/>
 </g>
</svg>
