<?xml version="1.0" encoding="UTF-8"?>
<!DOCTYPE svg PUBLIC "-//W3C//DTD SVG 1.1//EN" "http://www.w3.org/Graphics/SVG/1.1/DTD/svg11.dtd">
<!-- Creator: CorelDRAW 2019 (64-Bit) -->
<svg xmlns="http://www.w3.org/2000/svg" xml:space="preserve" width="8.26772in" height="11.6929in" version="1.1" shape-rendering="geometricPrecision" text-rendering="geometricPrecision" image-rendering="optimizeQuality" fill-rule="evenodd" clip-rule="evenodd"
viewBox="0 0 8267.72 11692.91"
 xmlns:xlink="http://www.w3.org/1999/xlink">
 <g id="Layer_x0020_1">
  <metadata id="CorelCorpID_0Corel-Layer"/>
  <polyline fill="none" stroke="black" stroke-width="3" stroke-miterlimit="2.61313" points="4020.03,3033.98 4711.7,2894.4 5055.45,2775.65 5513.78,2771.48 6176.29,2452.73 6405.45,2404.81 "/>
  <polyline fill="none" stroke="black" stroke-width="3" stroke-miterlimit="2.61313" points="5053.37,2148.56 4957.54,2465.23 5055.45,2775.65 "/>
  <polyline fill="none" stroke="black" stroke-width="3" stroke-miterlimit="2.61313" points="4326.3,1489.58 4070.04,2087.1 3906.5,2404.81 3872.13,2685.02 3857.54,2800.65 3602.33,3294.4 3358.58,3769.4 3224.2,4185.03 3140.87,4429.82 2957.54,4707.95 2266.9,5921.5 1994,6461.6 2350.25,6276.18 2652.33,6178.26 3254.42,5928.26 3923.17,5678.26 4185.67,5578.26 4323.17,5538.68 4648.18,5238.68 4841.93,5086.59 5083.59,4992.84 5287.76,4951.17 5435.68,4932.43 5458.59,4824.09 "/>
  <polyline fill="none" stroke="black" stroke-width="3" stroke-miterlimit="2.61313" points="1673.19,2057.42 2046.11,2426.17 2419.02,2747 2646.11,2934.5 2837.78,3094.92 2987.78,3257.42 3358.58,3769.4 "/>
  <polyline fill="none" stroke="black" stroke-width="3" stroke-miterlimit="2.61313" points="1929.46,1489.58 2054.46,1799.1 2131.54,2561.6 2212.79,2805.35 2241.96,3132.44 2410.7,4069.94 2460.18,4287.13 "/>
  <polyline fill="none" stroke="black" stroke-width="3" stroke-miterlimit="2.61313" points="3224.2,4185.03 3050.28,4178.79 2872.68,4210.04 2696.11,4235.56 2501.32,4272.02 2460.18,4287.13 2326.84,4320.98 1941.95,4706.39 1573.74,4835.04 1519.57,4853.79 "/>
  <polyline fill="none" stroke="black" stroke-width="3" stroke-miterlimit="2.61313" points="1573.74,4835.04 1809.15,5057.96 1890.39,5157.96 2119.56,5612.13 2266.9,5921.5 "/>
  <polyline fill="none" stroke="black" stroke-width="3" stroke-miterlimit="2.61313" points="2992.48,6490.85 2579.98,5866.3 2288.31,5378.27 2042.48,4914.21 1941.95,4706.39 "/>
  <polyline fill="none" stroke="black" stroke-width="3" stroke-miterlimit="2.61313" points="1702.91,1526.7 1673.19,2057.42 1782.07,2541.29 1775.82,3205.87 1765.41,3480.87 1854.99,3670.46 1963.32,3864.2 2046.66,3975.59 2326.84,4320.98 "/>
  <polyline fill="none" stroke="black" stroke-width="3" stroke-miterlimit="2.61313" points="1854.99,3670.46 2002.94,3653.02 2138.37,3809.8 2046.66,3975.59 "/>
  <polyline fill="none" stroke="black" stroke-width="3" stroke-miterlimit="2.61313" points="3517.56,6416.06 3355.06,5974.39 3296.72,5655.63 3355.06,4986.88 3352.97,4918.13 3252.97,4778.55 2957.54,4707.95 "/>
  <line fill="none" stroke="black" stroke-width="3" stroke-miterlimit="2.61313" x1="6495.85" y1="6164.88" x2="5981.52" y2= "5858.63" />
  <polyline fill="none" stroke="black" stroke-width="3" stroke-miterlimit="2.61313" points="5712.78,5708.63 5400.27,5316.96 4977.35,5256.54 4606.52,5062.8 3835.69,4735.71 3277.35,4475.29 3140.87,4429.82 "/>
  <polyline fill="none" stroke="black" stroke-width="3" stroke-miterlimit="2.61313" points="6495.85,4569.82 6018,4626.07 6020.08,4819.82 5615.91,4823.99 5458.59,4824.09 5359.66,4784.41 5307.57,4429.82 5224.24,4173.99 5167.99,4065.65 5059.66,3896.91 5003.41,3621.9 "/>
  <polyline fill="none" stroke="black" stroke-width="3" stroke-miterlimit="2.61313" points="5615.91,4823.99 5611.74,4956.29 5399.24,5141.7 5400.27,5316.96 "/>
  <polyline fill="none" stroke="black" stroke-width="3" stroke-miterlimit="2.61313" points="5822.15,4570.88 5712.78,4685.46 5615.91,4638.58 5630.49,4386.5 5526.32,4081.29 5694.03,4046.92 5800.28,3939.63 5655.49,3813.58 5458.59,3752.12 5458.59,3545.87 "/>
  <polyline fill="none" stroke="black" stroke-width="3" stroke-miterlimit="2.61313" points="5630.49,4386.5 5926.32,4414.63 6018,4626.07 "/>
  <polyline fill="none" stroke="black" stroke-width="3" stroke-miterlimit="2.61313" points="5003.41,3621.9 5458.59,3545.87 6405.45,3405.26 "/>
  <polyline fill="none" stroke="black" stroke-width="3" stroke-miterlimit="2.61313" points="3602.33,3294.4 3816.42,3350.05 4006,3411.51 4198.72,3488.07 4434.66,3588.59 4633.09,3382.34 4709.14,3346.93 4852.89,3433.91 5003.41,3621.9 "/>
  <polyline fill="none" stroke="black" stroke-width="3" stroke-miterlimit="2.61313" points="4020.03,3033.98 4118.52,2835.47 4170.6,2462.11 4068.52,2320.89 4070.04,2087.1 "/>
 </g>
</svg>
