<?xml version="1.0" encoding="UTF-8"?>
<!DOCTYPE svg PUBLIC "-//W3C//DTD SVG 1.1//EN" "http://www.w3.org/Graphics/SVG/1.1/DTD/svg11.dtd">
<!-- Creator: CorelDRAW 2021 (64-Bit) -->
<svg xmlns="http://www.w3.org/2000/svg" xml:space="preserve" width="1630px" height="1772px" version="1.1" shape-rendering="geometricPrecision" text-rendering="geometricPrecision" image-rendering="optimizeQuality" fill-rule="evenodd" clip-rule="evenodd"
viewBox="0 0 1630 1771.74"
 xmlns:xlink="http://www.w3.org/1999/xlink"
 xmlns:xodm="http://www.corel.com/coreldraw/odm/2003">
 <g id="Layer_x0020_1">
  <metadata id="CorelCorpID_0Corel-Layer"/>
  <polyline fill="none" stroke="black" stroke-width="0.9" stroke-miterlimit="22.9256" points="238.3,320.1 290.4,337.05 351.96,336.11 441.66,341.43 689.79,331.74 901.99,324.24 1025.13,318.93 1104.19,315.8 1290.14,344.86 1416.42,340.46 "/>
  <polyline fill="none" stroke="black" stroke-width="0.9" stroke-miterlimit="22.9256" points="403.6,184.85 394.79,210.48 351.96,336.11 "/>
  <polyline fill="none" stroke="black" stroke-width="0.9" stroke-miterlimit="22.9256" points="394.79,210.48 525.42,205.33 626.37,169.7 "/>
  <line fill="none" stroke="black" stroke-width="0.9" stroke-miterlimit="22.9256" x1="646.49" y1="83.27" x2="651.05" y2= "175.05" />
  <polyline fill="none" stroke="black" stroke-width="0.9" stroke-miterlimit="22.9256" points="469.21,146.03 598.07,175.05 651.05,175.05 810.28,164.39 903.1,157.83 991.85,152.05 1166.73,144.87 1167.02,144.86 "/>
  <polyline fill="none" stroke="black" stroke-width="0.9" stroke-miterlimit="22.9256" points="605.67,186.98 612.93,103.61 628.32,87.2 "/>
  <line fill="none" stroke="black" stroke-width="0.9" stroke-miterlimit="22.9256" x1="810.28" y1="164.39" x2="827.98" y2= "63.82" />
  <line fill="none" stroke="black" stroke-width="0.9" stroke-miterlimit="22.9256" x1="1202.53" y1="240.62" x2="1196.38" y2= "159.76" />
  <polyline fill="none" stroke="black" stroke-width="0.9" stroke-miterlimit="22.9256" points="1299.24,227.01 1263.82,242.54 1202.53,240.62 1131.35,277.85 1021.34,279.88 "/>
  <line fill="none" stroke="black" stroke-width="0.9" stroke-miterlimit="22.9256" x1="903.1" y1="157.83" x2="901.99" y2= "324.24" />
  <polyline fill="none" stroke="black" stroke-width="0.9" stroke-miterlimit="22.9256" points="991.85,152.05 1014,200.35 1021.34,279.88 1025.13,318.93 "/>
  <line fill="none" stroke="black" stroke-width="0.9" stroke-miterlimit="22.9256" x1="1452.37" y1="388.64" x2="1188.98" y2= "428.82" />
  <polyline fill="none" stroke="black" stroke-width="0.9" stroke-miterlimit="22.9256" points="117.11,496.37 131.43,499.3 251.75,523.68 525.52,515.7 757.56,511.95 1005.69,515.98 1049.62,516.64 1110.87,519.14 1533.73,529.69 "/>
  <polyline fill="none" stroke="black" stroke-width="0.9" stroke-miterlimit="22.9256" points="133.18,1225.74 364.27,1251.37 520.84,1268.25 561.47,1276.06 748.04,1309.5 910.55,1332.63 960.86,1340.44 1195.57,1352.32 1267.44,1356.69 1378.64,1389.9 "/>
  <polyline fill="none" stroke="black" stroke-width="0.9" stroke-miterlimit="22.9256" points="35.63,870.07 173.31,878.82 354.23,892.18 389.26,894.76 586.37,911.35 642.1,916.04 754.72,921.78 838.36,926.04 "/>
  <polyline fill="none" stroke="black" stroke-width="0.9" stroke-miterlimit="22.9256" points="1126.96,1566.05 1139.31,1497.17 1118.21,1453.42 1153.44,1363.02 1161.88,1317.39 1165.38,1272.09 1166.88,1252.7 1171.81,1202.77 1175.94,1160.82 1163.13,1122.07 1153.44,1092.38 1123.75,1003.94 1097.19,876.74 1092.19,852.99 1091.87,825.49 1086.24,579.07 1110.87,519.14 "/>
  <line fill="none" stroke="black" stroke-width="0.9" stroke-miterlimit="22.9256" x1="1049.62" y1="516.64" x2="1086.24" y2= "579.07" />
  <polyline fill="none" stroke="black" stroke-width="0.9" stroke-miterlimit="22.9256" points="1042.44,1597.08 1043.97,1497.32 1044.08,1497.32 1064.78,1461.97 1118.21,1453.42 "/>
  <polyline fill="none" stroke="black" stroke-width="0.9" stroke-miterlimit="22.9256" points="672.79,1615.78 664.73,1591.19 713.48,1525.56 725.98,1408.99 726.61,1220.85 792.55,1123.04 812.86,1032.72 838.36,926.04 863.8,863.33 877.55,832.4 1005.69,515.98 "/>
  <polyline fill="none" stroke="black" stroke-width="0.9" stroke-miterlimit="22.9256" points="184.51,1304.22 260.49,1313.35 260.1,1396.12 "/>
  <polyline fill="none" stroke="black" stroke-width="0.9" stroke-miterlimit="22.9256" points="294.89,1429.2 314.26,1399.68 403.48,1371.71 452.71,1323.43 527.71,1311.86 561.47,1276.06 "/>
  <polyline fill="none" stroke="black" stroke-width="0.9" stroke-miterlimit="22.9256" points="664.73,1591.19 604.91,1565.94 580.38,1516.88 551.47,1459.53 543.81,1413.75 527.71,1311.86 "/>
  <path fill="none" stroke="black" stroke-width="0.9" stroke-miterlimit="22.9256" d="M580.38 1516.88l-54.38 45.78 -42 -7.32m-49.48 -26.6l33.04 -104.21 76.25 -10.78"/>
  <line fill="none" stroke="black" stroke-width="0.9" stroke-miterlimit="22.9256" x1="467.56" y1="1424.53" x2="452.71" y2= "1323.43" />
  <polyline fill="none" stroke="black" stroke-width="0.9" stroke-miterlimit="22.9256" points="266.23,1401.37 345.05,1284.83 352.84,1276.06 355.68,1275.77 364.27,1251.37 "/>
  <line fill="none" stroke="black" stroke-width="0.9" stroke-miterlimit="22.9256" x1="41.33" y1="945.38" x2="79.12" y2= "942.31" />
  <polyline fill="none" stroke="black" stroke-width="0.9" stroke-miterlimit="22.9256" points="251.75,523.68 235.38,594.48 219.76,628.86 197.57,672.92 140.06,861.68 134.44,884.19 172.57,918.56 312.57,1098.57 517.58,1213.56 726.61,1220.85 "/>
  <polyline fill="none" stroke="black" stroke-width="0.9" stroke-miterlimit="22.9256" points="219.76,628.86 210.38,619.17 172.4,587.29 136,525.1 131.43,499.3 "/>
  <polyline fill="none" stroke="black" stroke-width="0.9" stroke-miterlimit="22.9256" points="504.93,509.17 430.52,588.86 423.05,664.49 358.35,767.93 354.37,892 "/>
  <polyline fill="none" stroke="black" stroke-width="0.9" stroke-miterlimit="22.9256" points="877.55,832.4 817.83,831.06 782.67,654.18 757.56,511.95 "/>
  <polyline fill="none" stroke="black" stroke-width="0.9" stroke-miterlimit="22.9256" points="782.67,654.18 690.16,648.86 579.85,616.99 525.78,572.92 492.97,505.42 "/>
  <polyline fill="none" stroke="black" stroke-width="0.9" stroke-miterlimit="22.9256" points="690.16,648.86 612.34,766.99 586.37,911.35 "/>
  <polyline fill="none" stroke="black" stroke-width="0.9" stroke-miterlimit="22.9256" points="754.72,921.78 675.01,807.86 726.61,687.54 "/>
  <polyline fill="none" stroke="black" stroke-width="0.9" stroke-miterlimit="22.9256" points="863.8,863.33 946.6,867.23 1058.95,875.51 1097.19,876.74 "/>
  <polyline fill="none" stroke="black" stroke-width="0.9" stroke-miterlimit="22.9256" points="812.86,1032.72 833.31,1140.69 965.82,1239.6 1012.07,1106.47 1037.7,957.08 1058.95,875.51 "/>
  <line fill="none" stroke="black" stroke-width="0.9" stroke-miterlimit="22.9256" x1="965.82" y1="1239.6" x2="1165.38" y2= "1272.09" />
  <polyline fill="none" stroke="black" stroke-width="0.9" stroke-miterlimit="22.9256" points="946.6,867.23 963.23,980.9 1008.86,1086.53 1022.61,1099.34 1126.05,1137.47 1163.13,1122.07 "/>
  <polyline fill="none" stroke="black" stroke-width="0.9" stroke-miterlimit="22.9256" points="1171.81,1202.77 1399.5,1217.79 1507.83,1217.48 "/>
  <line fill="none" stroke="black" stroke-width="0.9" stroke-miterlimit="22.9256" x1="1479.62" y1="1265.2" x2="1399.5" y2= "1217.79" />
  <polyline fill="none" stroke="black" stroke-width="0.9" stroke-miterlimit="22.9256" points="1583.59,687.97 1537.63,691.2 1472.32,762.77 1450.75,898.72 1368.87,1000.6 1273.87,1009.66 1153.44,1092.38 "/>
  <line fill="none" stroke="black" stroke-width="0.9" stroke-miterlimit="22.9256" x1="1599.47" y1="894.37" x2="1450.75" y2= "898.72" />
  <polyline fill="none" stroke="black" stroke-width="0.9" stroke-miterlimit="22.9256" points="1091.87,825.49 1261.68,839.34 1492.94,619.33 1570.53,627.54 "/>
  <polyline fill="none" stroke="black" stroke-width="0.9" stroke-miterlimit="22.9256" points="1239.49,614.95 1236.99,763.71 1339.81,690.58 "/>
 </g>
</svg>
