<?xml version="1.0" encoding="UTF-8"?>
<!DOCTYPE svg PUBLIC "-//W3C//DTD SVG 1.1//EN" "http://www.w3.org/Graphics/SVG/1.1/DTD/svg11.dtd">
<!-- Creator: CorelDRAW 2019 (64-Bit) -->
<svg xmlns="http://www.w3.org/2000/svg" xml:space="preserve" width="8.26772in" height="11.6929in" version="1.1" shape-rendering="geometricPrecision" text-rendering="geometricPrecision" image-rendering="optimizeQuality" fill-rule="evenodd" clip-rule="evenodd"
viewBox="0 0 8267.72 11692.91"
 xmlns:xlink="http://www.w3.org/1999/xlink">
 <g id="Layer_x0020_1">
  <metadata id="CorelCorpID_0Corel-Layer"/>
  <polyline fill="none" stroke="black" stroke-width="3" stroke-miterlimit="2.61313" points="1787.11,2780.23 2378.77,2726.06 2682.94,2825.02 2888.15,2821.89 3187.11,2839.6 4014.2,2807.31 4721.5,2782.31 5131.92,2764.6 5395.46,2754.19 6015.26,2851.06 7089.22,2813.56 "/>
  <polyline fill="none" stroke="black" stroke-width="3" stroke-miterlimit="2.61313" points="3287.13,1789.6 3075.68,2272.93 3030.89,2403.15 2888.15,2821.89 "/>
  <polyline fill="none" stroke="black" stroke-width="3" stroke-miterlimit="2.61313" points="3030.89,2403.15 3466.31,2385.96 3802.78,2267.21 "/>
  <polyline fill="none" stroke="black" stroke-width="3" stroke-miterlimit="2.61313" points="3860.07,1789.6 3867.43,1930.25 3885.07,2285.04 "/>
  <polyline fill="none" stroke="black" stroke-width="3" stroke-miterlimit="2.61313" points="1856.96,2058.37 2273.63,2100.03 2815.3,2096.91 3211.22,2173.06 3708.48,2285.04 3885.07,2285.04 4415.81,2249.51 4725.19,2227.64 5021.02,2208.37 5604.89,2184.41 5698.64,2180.24 "/>
  <polyline fill="none" stroke="black" stroke-width="3" stroke-miterlimit="2.61313" points="3733.79,2324.82 3758.01,2046.91 3867.43,1930.25 "/>
  <line fill="none" stroke="black" stroke-width="3" stroke-miterlimit="2.61313" x1="4415.81" y1="2249.51" x2="4495.92" y2= "1794.19" />
  <polyline fill="none" stroke="black" stroke-width="3" stroke-miterlimit="2.61313" points="5604.89,2184.41 5593.04,2087.96 5563.87,1810.87 "/>
  <polyline fill="none" stroke="black" stroke-width="3" stroke-miterlimit="2.61313" points="5723.24,2503.59 5698.64,2180.24 5758.66,1794.19 "/>
  <polyline fill="none" stroke="black" stroke-width="3" stroke-miterlimit="2.61313" points="5982.09,1794.19 6365.42,1810.87 6607.09,1818.96 6772.72,2004.37 7090.43,2070 "/>
  <polyline fill="none" stroke="black" stroke-width="3" stroke-miterlimit="2.61313" points="6772.72,2004.37 6472.71,2223.13 6299.8,2347.09 6118.54,2426.25 5927.53,2509.98 5723.24,2503.59 5485.97,2627.69 5119.3,2634.46 "/>
  <polyline fill="none" stroke="black" stroke-width="3" stroke-miterlimit="2.61313" points="6139.62,1778.21 6109.41,1820.92 6142.22,2108.94 6025.04,2285.04 6118.54,2426.25 "/>
  <line fill="none" stroke="black" stroke-width="3" stroke-miterlimit="2.61313" x1="6142.22" y1="2108.94" x2="6472.71" y2= "2223.13" />
  <polyline fill="none" stroke="black" stroke-width="3" stroke-miterlimit="2.61313" points="1787.11,2450.6 2234.39,2131.85 2588.56,1800.6 "/>
  <line fill="none" stroke="black" stroke-width="3" stroke-miterlimit="2.61313" x1="4725.19" y1="2227.64" x2="4721.5" y2= "2782.31" />
  <polyline fill="none" stroke="black" stroke-width="3" stroke-miterlimit="2.61313" points="5021.02,2208.37 5094.84,2369.37 5119.3,2634.46 5131.92,2764.6 "/>
  <polyline fill="none" stroke="black" stroke-width="3" stroke-miterlimit="2.61313" points="7089.22,2956.95 6947.87,2937.16 5678.07,3130.91 "/>
  <polyline fill="none" stroke="black" stroke-width="3" stroke-miterlimit="2.61313" points="1792.13,3374.15 2066.61,3348.11 2153.07,3365.81 2554.12,3447.07 3466.63,3420.5 4240.09,3408 5067.13,3421.4 5213.56,3423.63 5417.73,3431.96 7089.22,3473.63 "/>
  <polyline fill="none" stroke="black" stroke-width="3" stroke-miterlimit="2.61313" points="1792.71,5746.57 2929.17,5872.61 3451.05,5928.86 3586.47,5954.91 4208.35,6066.36 4750.02,6143.45 4917.72,6169.49 5700.03,6209.07 5939.61,6223.66 6400.04,6361.16 "/>
  <polyline fill="none" stroke="black" stroke-width="3" stroke-miterlimit="2.61313" points="1786.46,4598.65 2292.66,4630.84 2895.72,4675.35 3012.46,4683.96 3669.46,4739.26 3855.22,4754.9 4230.61,4774.03 4509.39,4788.23 "/>
  <polyline fill="none" stroke="black" stroke-width="3" stroke-miterlimit="2.61313" points="6400.04,6361.16 6400.04,6232 6691.68,6275.75 6850.01,6444.5 7083.35,6469.5 "/>
  <polyline fill="none" stroke="black" stroke-width="3" stroke-miterlimit="2.61313" points="6850.01,6444.5 6860.43,6682 6845.85,7109.09 6814.59,7517.42 "/>
  <polyline fill="none" stroke="black" stroke-width="3" stroke-miterlimit="2.61313" points="6966.68,7517.42 6860.43,7225.75 6814.59,7144.5 6558.35,6890.33 6400.04,6361.16 "/>
  <polyline fill="none" stroke="black" stroke-width="3" stroke-miterlimit="2.61313" points="5777.09,7528.88 5748.97,7314.3 5460.95,6979.4 5512.51,6691.89 5442.19,6546.06 5559.62,6244.75 5587.75,6092.66 5599.42,5941.67 5604.41,5877.04 5620.83,5710.6 5634.62,5570.79 5591.91,5441.62 5559.62,5342.66 5460.65,5047.86 5372.11,4623.9 5355.44,4544.73 5354.4,4453.07 5335.64,3631.71 5417.73,3431.96 "/>
  <line fill="none" stroke="black" stroke-width="3" stroke-miterlimit="2.61313" x1="5213.56" y1="3423.63" x2="5335.64" y2= "3631.71" />
  <line fill="none" stroke="black" stroke-width="3" stroke-miterlimit="2.61313" x1="5447.6" y1="7528.88" x2="5460.95" y2= "6979.4" />
  <polyline fill="none" stroke="black" stroke-width="3" stroke-miterlimit="2.61313" points="5072.59,7528.88 5186.14,7254.14 5194.72,6692.39 5195.11,6692.39 5264.11,6574.56 5442.19,6546.06 "/>
  <polyline fill="none" stroke="black" stroke-width="3" stroke-miterlimit="2.61313" points="4799.39,7528.88 4635.84,7409.44 4489.49,7534.44 "/>
  <polyline fill="none" stroke="black" stroke-width="3" stroke-miterlimit="2.61313" points="4145.24,7529.24 4059.82,7424.02 3990.54,7188.09 4236.1,7269.34 4476.74,7529.24 "/>
  <polyline fill="none" stroke="black" stroke-width="3" stroke-miterlimit="2.61313" points="3990.54,7188.09 3930.65,7005.27 4093.15,6786.52 4134.82,6397.97 4136.91,5770.89 4356.7,5444.84 4424.41,5143.8 4509.39,4788.23 4594.2,4579.21 4640.03,4476.09 5067.13,3421.4 "/>
  <polyline fill="none" stroke="black" stroke-width="3" stroke-miterlimit="2.61313" points="1799.91,7264.11 1884.8,7278.69 2193.13,7337.02 2581.09,7402.77 3272.32,7529.24 "/>
  <line fill="none" stroke="black" stroke-width="3" stroke-miterlimit="2.61313" x1="1799.91" y1="7448.49" x2="1884.8" y2= "7278.69" />
  <path fill="none" stroke="black" stroke-width="3" stroke-miterlimit="2.61313" d="M1792.71 5960.46l127.54 39.06 663.02 79.68 -1.56 323.96c1.04,0 2.08,0 3.12,0l-3.12 312.5 -0.63 687.11"/>
  <polyline fill="none" stroke="black" stroke-width="3" stroke-miterlimit="2.61313" points="2195.68,7337.45 2201.01,7301.86 2321.32,6994.57 2357.78,6898.73 2552.06,6681.61 2631.22,6566.95 2762.47,6366.95 3059.87,6273.72 3223.94,6112.78 3473.94,6074.24 3586.47,5954.91 "/>
  <polyline fill="none" stroke="black" stroke-width="3" stroke-miterlimit="2.61313" points="3930.65,7005.27 3731.26,6921.13 3649.49,6757.58 3553.13,6566.44 3527.61,6413.83 3473.94,6074.24 "/>
  <polyline fill="none" stroke="black" stroke-width="3" stroke-miterlimit="2.61313" points="3649.49,6757.58 3468.24,6910.19 3145.32,6853.94 3273.44,6449.76 3527.61,6413.83 "/>
  <line fill="none" stroke="black" stroke-width="3" stroke-miterlimit="2.61313" x1="3273.44" y1="6449.76" x2="3223.94" y2= "6112.78" />
  <polyline fill="none" stroke="black" stroke-width="3" stroke-miterlimit="2.61313" points="2581.71,6403.16 2865.12,5984.13 2891.07,5954.91 2900.54,5953.93 2929.17,5872.61 "/>
  <line fill="none" stroke="black" stroke-width="3" stroke-miterlimit="2.61313" x1="1817.21" y1="6627.87" x2="1920.25" y2= "5999.52" />
  <line fill="none" stroke="black" stroke-width="3" stroke-miterlimit="2.61313" x1="1799.54" y1="4857.03" x2="1978.71" y2= "4842.44" />
  <polyline fill="none" stroke="black" stroke-width="3" stroke-miterlimit="2.61313" points="2554.12,3447.07 2499.56,3683.08 2447.48,3797.67 2373.52,3944.54 2181.85,4573.71 2163.1,4648.71 2290.19,4763.3 2756.85,5363.3 3440.19,5746.57 4136.91,5770.89 "/>
  <polyline fill="none" stroke="black" stroke-width="3" stroke-miterlimit="2.61313" points="2447.48,3797.67 2416.22,3765.37 2289.65,3659.12 2168.3,3451.83 2153.07,3365.81 "/>
  <polyline fill="none" stroke="black" stroke-width="3" stroke-miterlimit="2.61313" points="3398,3398.72 3150,3664.34 3125.08,3916.43 2909.45,4261.22 2896.17,4674.76 "/>
  <polyline fill="none" stroke="black" stroke-width="3" stroke-miterlimit="2.61313" points="4640.03,4476.09 4440.98,4471.64 4323.78,3882.05 4240.09,3408 "/>
  <polyline fill="none" stroke="black" stroke-width="3" stroke-miterlimit="2.61313" points="4323.78,3882.05 4015.43,3864.34 3647.72,3758.09 3467.52,3611.22 3358.14,3386.21 "/>
  <polyline fill="none" stroke="black" stroke-width="3" stroke-miterlimit="2.61313" points="4015.43,3864.34 3756.05,4258.09 3669.46,4739.26 "/>
  <polyline fill="none" stroke="black" stroke-width="3" stroke-miterlimit="2.61313" points="4230.61,4774.03 3964.94,4394.31 4136.91,3993.27 "/>
  <polyline fill="none" stroke="black" stroke-width="3" stroke-miterlimit="2.61313" points="4594.2,4579.21 4870.17,4592.21 5244.65,4619.81 5372.11,4623.9 "/>
  <polyline fill="none" stroke="black" stroke-width="3" stroke-miterlimit="2.61313" points="4424.41,5143.8 4492.56,5503.67 4934.24,5833.36 5088.41,5389.61 5173.82,4891.69 5244.65,4619.81 "/>
  <line fill="none" stroke="black" stroke-width="3" stroke-miterlimit="2.61313" x1="4934.24" y1="5833.36" x2="5599.42" y2= "5941.67" />
  <polyline fill="none" stroke="black" stroke-width="3" stroke-miterlimit="2.61313" points="4870.17,4592.21 4925.61,4971.07 5077.69,5323.16 5123.52,5365.87 5468.32,5492.95 5591.91,5441.62 "/>
  <polyline fill="none" stroke="black" stroke-width="3" stroke-miterlimit="2.61313" points="5620.83,5710.6 6379.78,5760.67 7097.49,5758.59 "/>
  <polyline fill="none" stroke="black" stroke-width="3" stroke-miterlimit="2.61313" points="7097.49,6117.97 6958.94,6103.39 6379.78,5760.67 "/>
  <polyline fill="none" stroke="black" stroke-width="3" stroke-miterlimit="2.61313" points="7032.9,3991.93 6840.19,4005.47 6622.48,4244.02 6550.61,4697.15 6277.69,5036.73 5961.02,5066.94 5559.62,5342.66 "/>
  <line fill="none" stroke="black" stroke-width="3" stroke-miterlimit="2.61313" x1="7084.99" y1="4681.52" x2="6550.61" y2= "4697.15" />
  <polyline fill="none" stroke="black" stroke-width="3" stroke-miterlimit="2.61313" points="5354.4,4453.07 5920.39,4499.23 6691.22,3765.89 7084.99,3807.56 "/>
  <polyline fill="none" stroke="black" stroke-width="3" stroke-miterlimit="2.61313" points="5846.43,3751.31 5838.1,4247.15 6180.81,4003.39 "/>
 </g>
</svg>
