<?xml version="1.0" encoding="UTF-8"?>
<!DOCTYPE svg PUBLIC "-//W3C//DTD SVG 1.1//EN" "http://www.w3.org/Graphics/SVG/1.1/DTD/svg11.dtd">
<!-- Creator: CorelDRAW 2021 (64-Bit) -->
<svg xmlns="http://www.w3.org/2000/svg" xml:space="preserve" width="1736px" height="1760px" version="1.1" shape-rendering="geometricPrecision" text-rendering="geometricPrecision" image-rendering="optimizeQuality" fill-rule="evenodd" clip-rule="evenodd"
viewBox="0 0 1736 1759.62"
 xmlns:xlink="http://www.w3.org/1999/xlink"
 xmlns:xodm="http://www.corel.com/coreldraw/odm/2003">
 <g id="Layer_x0020_1">
  <metadata id="CorelCorpID_0Corel-Layer"/>
  <polyline fill="none" stroke="black" stroke-width="0.9" stroke-miterlimit="22.9256" points="155.44,1320.43 282.78,1034.48 314.33,961.12 366.83,870.51 406.82,829.89 439.63,795.2 479.31,734.27 552.11,623.66 620.23,441.19 635.23,359.32 653.82,189.97 645.7,70.3 "/>
  <polyline fill="none" stroke="black" stroke-width="0.9" stroke-miterlimit="22.9256" points="39.99,732.78 124.36,531.02 140.77,460.2 "/>
  <line fill="none" stroke="black" stroke-width="0.9" stroke-miterlimit="22.9256" x1="124.36" y1="531.02" x2="106.11" y2= "523.43" />
  <polyline fill="none" stroke="black" stroke-width="0.9" stroke-miterlimit="22.9256" points="162.63,427 226.08,460.09 281.69,509.77 397.62,693.5 479.31,734.27 "/>
  <polyline fill="none" stroke="black" stroke-width="0.9" stroke-miterlimit="22.9256" points="635.23,359.32 353.25,379.16 226.08,460.09 "/>
  <polyline fill="none" stroke="black" stroke-width="0.9" stroke-miterlimit="22.9256" points="464.92,1615.1 490.11,1568.39 493.59,1552.38 556.97,1261.55 555.72,1225.3 553.85,1164.69 551.97,939.09 646.34,590.38 671.33,314.79 713.21,236.68 746.32,174.81 754.14,47.64 "/>
  <polyline fill="none" stroke="black" stroke-width="0.9" stroke-miterlimit="22.9256" points="744.03,1708.8 743.21,1641.5 739.77,1471.83 736.64,1252.8 766.02,1125.31 875.69,887.22 "/>
  <polyline fill="none" stroke="black" stroke-width="0.9" stroke-miterlimit="22.9256" points="713.21,236.68 748.84,301.36 755.7,523.2 755.7,606.32 755.7,680.68 736.64,832.54 666.98,1076.89 591.98,1229.99 601.36,1294.36 613.86,1359.35 663.23,1417.47 705.72,1398.72 730.09,1379.35 745.09,1370.6 755.7,1389.35 968.81,1426.22 1042.55,1397.47 1138.79,1323.73 "/>
  <polyline fill="none" stroke="black" stroke-width="0.9" stroke-miterlimit="22.9256" points="601.36,1294.36 653.82,1275.6 699.79,1249.98 687.92,1153.74 722.92,1068.75 865.39,831.45 901.02,663.18 941.64,521.94 961.64,386.34 1011.63,275.1 895.4,440.08 830.71,539.44 755.7,606.32 "/>
  <polyline fill="none" stroke="black" stroke-width="0.9" stroke-miterlimit="22.9256" points="755.7,523.2 809.63,466.48 830.71,340.56 840.88,286.2 858.14,215.11 861.58,100.44 826.59,91.69 820.84,40.18 "/>
  <polyline fill="none" stroke="black" stroke-width="0.9" stroke-miterlimit="22.9256" points="861.58,100.44 875.02,66.38 877.87,39.39 "/>
  <line fill="none" stroke="black" stroke-width="0.9" stroke-miterlimit="22.9256" x1="321.44" y1="1512.61" x2="336.02" y2= "1405.59" />
  <polyline fill="none" stroke="black" stroke-width="0.9" stroke-miterlimit="22.9256" points="190.27,1373.32 215.41,1352.47 277.9,1310.6 387.26,1213.74 464.76,1176.87 "/>
  <polyline fill="none" stroke="black" stroke-width="0.9" stroke-miterlimit="22.9256" points="406.82,829.89 414.76,978.77 456.63,1078.13 553.85,1164.69 "/>
  <polyline fill="none" stroke="black" stroke-width="0.9" stroke-miterlimit="22.9256" points="923.45,1718.36 1138.79,1323.73 1223.41,1179.37 1236.54,1145.62 1245.29,1112.5 1288.72,962.83 1364.02,722.86 1390.9,474.14 1448.39,345.41 1463.94,289.42 "/>
  <polyline fill="none" stroke="black" stroke-width="0.9" stroke-miterlimit="22.9256" points="1231.54,1178.43 1227.17,895.96 1226.54,747.86 1237.17,666.62 1298.41,507.89 1396.82,227.26 "/>
  <polyline fill="none" stroke="black" stroke-width="0.9" stroke-miterlimit="22.9256" points="1052.78,59.17 983.44,124.5 936.26,168.87 858.14,215.11 "/>
  <polyline fill="none" stroke="black" stroke-width="0.9" stroke-miterlimit="22.9256" points="1345.82,191.81 1297.78,375.72 1264.03,616.94 1364.02,722.86 "/>
  <polyline fill="none" stroke="black" stroke-width="0.9" stroke-miterlimit="22.9256" points="865.39,831.45 895.02,815.66 1011.63,737.55 1112.8,646.94 1207.79,615.38 1284.66,603.19 "/>
  <polyline fill="none" stroke="black" stroke-width="0.9" stroke-miterlimit="22.9256" points="1015.66,1707.48 1309.97,1268.11 1414.33,1178.43 1544.94,1057.51 1592.43,861.91 1657.19,588.38 "/>
  <polyline fill="none" stroke="black" stroke-width="0.9" stroke-miterlimit="22.9256" points="1014.34,1707.05 1156.86,1463.71 1318.25,1122.19 1411.21,842.54 1535.57,918.15 1673.68,923.78 1707.45,924.68 "/>
  <polyline fill="none" stroke="black" stroke-width="0.9" stroke-miterlimit="22.9256" points="1411.21,842.54 1417.76,819.26 1427.29,792.78 1451.19,613.81 "/>
  <polyline fill="none" stroke="black" stroke-width="0.9" stroke-miterlimit="22.9256" points="1413.27,1516.9 1309.02,1294.36 1275.28,1178.43 1245.29,1112.5 "/>
  <polyline fill="none" stroke="black" stroke-width="0.9" stroke-miterlimit="22.9256" points="1414.33,1178.43 1375.89,1328.72 1361.84,1381.84 1347.14,1418.09 1254.65,1607.44 1244.59,1628.46 "/>
  <polyline fill="none" stroke="black" stroke-width="0.9" stroke-miterlimit="22.9256" points="1684.52,1070.48 1664.92,1015.01 1673.68,923.78 "/>
  <polyline fill="none" stroke="black" stroke-width="0.9" stroke-miterlimit="22.9256" points="912.51,962.52 983.28,1080.63 1037.65,1242.48 1033.9,1341.22 1042.55,1397.47 "/>
  <polyline fill="none" stroke="black" stroke-width="0.9" stroke-miterlimit="22.9256" points="1237.62,1172.5 1219.18,1144.69 1160.44,1023.45 1121.7,967.52 1145.13,863.16 "/>
  <polyline fill="none" stroke="black" stroke-width="0.9" stroke-miterlimit="22.9256" points="1121.7,967.52 1097.64,953.15 1062.02,930.97 "/>
  <line fill="none" stroke="black" stroke-width="0.9" stroke-miterlimit="22.9256" x1="1097.64" y1="953.15" x2="1098.58" y2= "1024.39" />
  <polyline fill="none" stroke="black" stroke-width="0.9" stroke-miterlimit="22.9256" points="493.59,1552.38 549.57,1554.02 644.56,1569.96 681.12,1597.14 743.21,1641.5 "/>
  <polyline fill="none" stroke="black" stroke-width="0.9" stroke-miterlimit="22.9256" points="681.12,1597.14 708.93,1521.52 739.77,1471.83 "/>
 </g>
</svg>
