<?xml version="1.0" encoding="UTF-8"?>
<!DOCTYPE svg PUBLIC "-//W3C//DTD SVG 1.1//EN" "http://www.w3.org/Graphics/SVG/1.1/DTD/svg11.dtd">
<!-- Creator: CorelDRAW 2019 (64-Bit) -->
<svg xmlns="http://www.w3.org/2000/svg" xml:space="preserve" width="8.26772in" height="11.6929in" version="1.1" shape-rendering="geometricPrecision" text-rendering="geometricPrecision" image-rendering="optimizeQuality" fill-rule="evenodd" clip-rule="evenodd"
viewBox="0 0 8267.72 11692.91"
 xmlns:xlink="http://www.w3.org/1999/xlink">
 <g id="Layer_x0020_1">
  <metadata id="CorelCorpID_0Corel-Layer"/>
  <g id="_2429489418864">
   <polyline fill="none" stroke="black" stroke-width="3" stroke-miterlimit="2.61313" points="1486.5,6887.37 1603.17,6730.07 2210.46,5366.29 2315.66,5121.72 2490.66,4819.64 2624,4684.22 2733.37,4568.59 2865.66,4365.47 3108.37,3996.72 3335.45,3388.39 3385.45,3115.47 3447.43,2550.89 3420.35,2151.93 "/>
   <polyline fill="none" stroke="black" stroke-width="3" stroke-miterlimit="2.61313" points="1341.72,4502.45 1682.35,3687.87 1767.76,3319.11 1831.3,3047.24 1971.93,2786.82 1999.01,2233.69 2008.39,2023.27 "/>
   <polyline fill="none" stroke="black" stroke-width="3" stroke-miterlimit="2.61313" points="1999.01,2233.69 1875.06,2286.81 1730.26,2650.36 1426.09,3035.78 "/>
   <line fill="none" stroke="black" stroke-width="3" stroke-miterlimit="2.61313" x1="1682.35" y1="3687.87" x2="1341.72" y2= "3546.2" />
   <polyline fill="none" stroke="black" stroke-width="3" stroke-miterlimit="2.61313" points="1767.76,3319.11 2021.44,3451.41 2206.86,3617.04 2593.32,4229.53 2865.66,4365.47 "/>
   <polyline fill="none" stroke="black" stroke-width="3" stroke-miterlimit="2.61313" points="3385.45,3115.47 2445.4,3181.61 2021.44,3451.41 "/>
   <polyline fill="none" stroke="black" stroke-width="3" stroke-miterlimit="2.61313" points="2599.57,7706.62 2901.65,7146.2 2913.28,7092.83 3124.57,6123.28 3120.4,6002.44 3114.15,5800.36 3107.9,5048.28 3422.49,3885.77 3505.82,2967.02 3645.41,2706.6 3755.82,2500.35 3787.07,1992.02 "/>
   <polyline fill="none" stroke="black" stroke-width="3" stroke-miterlimit="2.61313" points="3748.55,7646.19 3745.43,7389.94 3733.96,6824.31 3723.55,6094.1 3821.47,5669.1 4187.09,4875.34 "/>
   <polyline fill="none" stroke="black" stroke-width="3" stroke-miterlimit="2.61313" points="3645.41,2706.6 3764.21,2922.22 3787.07,3661.81 3787.07,3938.89 3787.07,4186.81 3723.55,4693.06 3491.3,5507.65 3241.29,6018.07 3272.54,6232.65 3314.21,6449.32 3478.8,6643.07 3620.46,6580.57 3701.71,6515.98 3751.71,6486.82 3787.07,6549.32 4497.55,6672.24 4743.38,6576.4 5064.22,6330.57 "/>
   <polyline fill="none" stroke="black" stroke-width="3" stroke-miterlimit="2.61313" points="3272.54,6232.65 3447.43,6170.13 3600.7,6084.71 3561.12,5763.87 3677.79,5480.54 4152.75,4689.42 4271.55,4128.45 4406.97,3657.61 4473.64,3205.53 4640.3,2834.7 4252.8,3384.7 4037.15,3715.95 3787.07,3938.89 "/>
   <polyline fill="none" stroke="black" stroke-width="3" stroke-miterlimit="2.61313" points="3787.07,3661.81 3966.86,3472.72 4037.15,3052.93 4071.04,2871.68 4128.59,2634.71 4140.06,2252.41 4023.39,2223.25 3995.26,1971.16 "/>
   <polyline fill="none" stroke="black" stroke-width="3" stroke-miterlimit="2.61313" points="4140.06,2252.41 4184.85,2138.87 4202.56,1971.16 "/>
   <polyline fill="none" stroke="black" stroke-width="3" stroke-miterlimit="2.61313" points="1383.8,7028.47 2302.56,7230.56 2387.97,6603.47 "/>
   <line fill="none" stroke="black" stroke-width="3" stroke-miterlimit="2.61313" x1="2302.56" y1="7230.56" x2="2171.3" y2= "7706.62" />
   <polyline fill="none" stroke="black" stroke-width="3" stroke-miterlimit="2.61313" points="1383.8,6672.24 1656.72,6699.31 1985.89,6426.39 2194.22,6286.8 2558.8,5963.89 2817.14,5840.97 "/>
   <polyline fill="none" stroke="black" stroke-width="3" stroke-miterlimit="2.61313" points="2624,4684.22 2650.47,5180.55 2790.06,5511.8 3114.15,5800.36 "/>
   <polyline fill="none" stroke="black" stroke-width="3" stroke-miterlimit="2.61313" points="4346.32,7646.19 5064.22,6330.57 5346.32,5849.3 5390.07,5736.8 5419.24,5626.38 5564.04,5127.42 5815.08,4327.42 5904.67,3498.25 6096.33,3069.08 6242.17,2544.08 "/>
   <polyline fill="none" stroke="black" stroke-width="3" stroke-miterlimit="2.61313" points="5373.42,5846.17 5358.83,4904.5 5356.75,4410.75 5392.17,4139.92 5596.33,3610.75 6045.28,2330.54 5843.2,2217 5752.57,2164.92 4780.69,2111.79 4309.85,1971.16 "/>
   <polyline fill="none" stroke="black" stroke-width="3" stroke-miterlimit="2.61313" points="4780.69,2111.79 4546.31,2332.63 4389.02,2480.55 4128.59,2634.71 "/>
   <polyline fill="none" stroke="black" stroke-width="3" stroke-miterlimit="2.61313" points="5843.2,2217 5594.24,3170.13 5481.74,3974.3 5815.08,4327.42 "/>
   <polyline fill="none" stroke="black" stroke-width="3" stroke-miterlimit="2.61313" points="4152.75,4689.42 4251.53,4636.8 4640.3,4376.38 4977.57,4074.3 5294.24,3969.09 5550.49,3928.46 "/>
   <polyline fill="none" stroke="black" stroke-width="3" stroke-miterlimit="2.61313" points="4611.96,7672.22 5634.87,6145.14 5982.79,5846.17 6418.21,5443.06 6576.54,4790.97 6818.21,3770.14 6759.88,3368.06 "/>
   <polyline fill="none" stroke="black" stroke-width="3" stroke-miterlimit="2.61313" points="4611.96,7672.22 5124.45,6797.23 5662.47,5658.68 5972.38,4726.39 6386.96,4978.47 6847.39,4997.22 7003.63,5001.39 "/>
   <polyline fill="none" stroke="black" stroke-width="3" stroke-miterlimit="2.61313" points="5972.38,4726.39 5994.24,4648.78 6026.01,4560.5 6105.69,3963.88 "/>
   <polyline fill="none" stroke="black" stroke-width="3" stroke-miterlimit="2.61313" points="6385.89,7707.64 6242.17,7507.64 6079.64,7188.89 5631.72,6232.65 5519.22,5846.17 5419.24,5626.38 "/>
   <polyline fill="none" stroke="black" stroke-width="3" stroke-miterlimit="2.61313" points="5982.79,5846.17 5854.64,6347.22 5807.8,6524.3 5758.8,6645.14 5450.47,7276.39 5273.39,7646.19 "/>
   <polyline fill="none" stroke="black" stroke-width="3" stroke-miterlimit="2.61313" points="5902.56,7672.22 6454.64,7318.06 6779.64,6622.22 6981.72,6199.3 6946.31,5663.89 6818.21,5301.38 6847.39,4997.22 "/>
   <line fill="none" stroke="black" stroke-width="3" stroke-miterlimit="2.61313" x1="6608.81" y1="7692.54" x2="6454.64" y2= "7318.06" />
   <polyline fill="none" stroke="black" stroke-width="3" stroke-miterlimit="2.61313" points="4309.85,5126.39 4545.78,5520.14 4727.03,6059.72 4714.53,6388.89 4743.38,6576.4 "/>
   <polyline fill="none" stroke="black" stroke-width="3" stroke-miterlimit="2.61313" points="5393.68,5826.4 5332.22,5733.69 5136.39,5329.52 5007.22,5143.06 5085.35,4795.15 "/>
   <polyline fill="none" stroke="black" stroke-width="3" stroke-miterlimit="2.61313" points="5007.22,5143.06 4927.01,5095.14 4808.26,5021.19 "/>
   <line fill="none" stroke="black" stroke-width="3" stroke-miterlimit="2.61313" x1="4927.01" y1="5095.14" x2="4930.14" y2= "5332.65" />
   <polyline fill="none" stroke="black" stroke-width="3" stroke-miterlimit="2.61313" points="2913.28,7092.83 3099.89,7098.3 3416.56,7151.43 3538.44,7242.06 3745.43,7389.94 "/>
   <polyline fill="none" stroke="black" stroke-width="3" stroke-miterlimit="2.61313" points="3538.44,7242.06 3631.15,6989.97 3733.96,6824.31 "/>
  </g>
 </g>
</svg>
