<?xml version="1.0" encoding="UTF-8"?>
<!DOCTYPE svg PUBLIC "-//W3C//DTD SVG 1.1//EN" "http://www.w3.org/Graphics/SVG/1.1/DTD/svg11.dtd">
<!-- Creator: CorelDRAW 2021 (64-Bit) -->
<svg xmlns="http://www.w3.org/2000/svg" xml:space="preserve" width="210mm" height="297mm" version="1.1" shape-rendering="geometricPrecision" text-rendering="geometricPrecision" image-rendering="optimizeQuality" fill-rule="evenodd" clip-rule="evenodd"
viewBox="0 0 21000 29700"
 xmlns:xlink="http://www.w3.org/1999/xlink"
 xmlns:xodm="http://www.corel.com/coreldraw/odm/2003">
 <g id="Layer_x0020_1">
  <metadata id="CorelCorpID_0Corel-Layer"/>
  <polyline fill="none" stroke="black" stroke-width="7.62" stroke-miterlimit="22.9256" points="4352.73,19012.45 4352.73,19012.45 6533.2,19242.7 7096.75,19322.04 7639.16,19491.39 8059.84,19414.65 8509.65,19274.45 8665.75,19324.71 9261.05,19512.54 9446.27,19583.99 9821.99,19597.23 10049.52,19631.62 10329.99,19660.73 10708.34,19732.15 10917.36,19822.12 10991.43,19861.79 11369.79,19896.21 12015.38,19885.62 12287.97,19896.21 "/>
  <polyline fill="none" stroke="black" stroke-width="7.62" stroke-miterlimit="22.9256" points="9848.43,20970.4 9827.71,20947.17 9216.1,20261.31 8811.27,19806.24 8665.75,19324.71 "/>
  <polyline fill="none" stroke="black" stroke-width="7.62" stroke-miterlimit="22.9256" points="12941.49,20980.99 12938.02,20976.74 12330.29,20232.2 12287.97,19896.21 12256.14,19229.44 12452,19036.3 "/>
  <polyline fill="none" stroke="black" stroke-width="7.62" stroke-miterlimit="22.9256" points="13333.08,20531.16 13323.04,20514.13 12452,19036.3 11981.04,18205.46 11293.13,17004.25 11470.39,16535.92 11764.09,16178.75 11801.13,15014.56 11581.52,14585.94 11414.85,14408.67 10671.36,13892.72 10388.25,13681.07 10086.63,13241.85 9848.5,12866.13 9787.65,12085.62 9737.38,11458.54 9684.45,11191.31 9628.9,10855.29 9568.04,10487.53 9560.09,10185.9 10435.88,9077.29 10568.58,8395.67 10568.58,8395.67 "/>
  <polyline fill="none" stroke="black" stroke-width="7.62" stroke-miterlimit="22.9256" points="4857.36,14730.87 4857.36,14730.87 5358.42,15353.25 5818.8,15969.73 6247.42,16541.23 6871.86,17282.07 7014.73,18012.32 7078.23,18382.75 8059.84,19414.65 "/>
  <polyline fill="none" stroke="black" stroke-width="7.62" stroke-miterlimit="22.9256" points="4332.32,17576.46 4332.32,17576.46 5212.93,17620.75 5951.13,18102.29 6887.76,18364.21 7078.23,18382.75 "/>
  <polyline fill="none" stroke="black" stroke-width="7.62" stroke-miterlimit="22.9256" points="6871.86,17282.07 6766.04,17390.55 6170.74,17488.45 6178.67,17488.45 5951.13,18102.29 "/>
  <polyline fill="none" stroke="black" stroke-width="7.62" stroke-miterlimit="22.9256" points="6247.42,16541.23 5951.13,16821.7 6178.67,17488.45 "/>
  <polyline fill="none" stroke="black" stroke-width="7.62" stroke-miterlimit="22.9256" points="4328.8,16850.76 4328.8,16850.76 4977.45,16848.16 5951.13,16821.7 "/>
  <polyline fill="none" stroke="black" stroke-width="7.62" stroke-miterlimit="22.9256" points="4977.45,16848.16 5204.98,17520.2 5212.93,17620.75 "/>
  <polyline fill="none" stroke="black" stroke-width="7.62" stroke-miterlimit="22.9256" points="7014.73,18012.32 7479.02,17602.19 8026.72,17068.46 9362.86,16836.23 9876.17,16897.08 10302.15,16936.76 10855.11,16971.18 11293.13,17004.25 "/>
  <polyline fill="none" stroke="black" stroke-width="7.62" stroke-miterlimit="22.9256" points="7479.02,17602.19 7844.17,17659.08 7854.76,17659.08 8365.43,17709.35 8645.87,17743.74 8881.35,17756.97 9267.66,17730.51 10013.78,18012.32 10675.25,18227.94 10762.55,18241.15 10953.05,18267.62 11151.5,18238.51 11558.96,18227.94 11981.04,18205.46 "/>
  <polyline fill="none" stroke="black" stroke-width="7.62" stroke-miterlimit="22.9256" points="11558.96,18227.94 11503.41,19064.01 11146.21,19736.06 11048.35,19947.72 11000.7,20212.31 10939.87,20447.77 10873.7,20741.47 10805.15,21049.09 10805.15,21049.09 "/>
  <polyline fill="none" stroke="black" stroke-width="7.62" stroke-miterlimit="22.9256" points="5986.84,8676.43 5574.09,9676.56 5198.4,10338.02 5305.54,10656.84 5570.79,11002.82 6586.79,11595.47 7359.36,12021.46 8007.59,12389.22 8134.59,12405.1 8510.31,12881.35 8716.68,13659.25 9118.89,13896.03 9257.8,14479.44 9630.88,15404.15 9777.71,15798.38 9812.11,15876.44 10218.25,16053.73 11470.39,16535.92 "/>
  <polyline fill="none" stroke="black" stroke-width="7.62" stroke-miterlimit="22.9256" points="10218.25,16053.73 10210.28,16628.2 10537.05,17083.29 10920.69,17574.09 11055.64,17934.9 11128.38,18131.04 11151.5,18238.51 "/>
  <polyline fill="none" stroke="black" stroke-width="7.62" stroke-miterlimit="22.9256" points="8716.68,13659.25 8593.7,13885.15 8025.5,14947.46 7538.66,15391.96 6455.14,15391.96 5323.23,13991.9 5323.23,13991.9 "/>
  <polyline fill="none" stroke="black" stroke-width="7.62" stroke-miterlimit="22.9256" points="5570.79,11002.82 5291.09,11013.1 4340.57,11017.75 "/>
  <polyline fill="none" stroke="black" stroke-width="7.62" stroke-miterlimit="22.9256" points="8134.59,12405.1 8798.8,11823.44 8816,11163.29 8854.37,10520.34 8854.37,10190.93 8632.81,9596.9 8822.65,9303.23 9337.91,8413.57 "/>
  <line fill="none" stroke="black" stroke-width="7.62" stroke-miterlimit="22.9256" x1="9560.09" y1="10185.9" x2="8822.65" y2= "9303.23" />
  <line fill="none" stroke="black" stroke-width="7.62" stroke-miterlimit="22.9256" x1="8854.37" y1="10520.34" x2="9568.04" y2= "10487.53" />
  <polyline fill="none" stroke="black" stroke-width="7.62" stroke-miterlimit="22.9256" points="11096.25,15910.62 10956.02,15478.04 11470.39,14598.28 11605.57,14473.93 13333.08,13766.16 14018.57,13628.56 "/>
  <polyline fill="none" stroke="black" stroke-width="7.62" stroke-miterlimit="22.9256" points="16617.75,16518.39 16617.75,16518.39 16354.86,16255.91 16047.95,15853.73 15502.9,14964.73 15767.46,13882.61 15754.25,13586.3 15701.32,12853.38 15807.16,11818.87 15476.43,11440.51 15537.29,10564.74 15251.54,10488.01 16129.94,9347.65 16430.92,8509.06 16430.92,8509.06 "/>
  <polyline fill="none" stroke="black" stroke-width="7.62" stroke-miterlimit="22.9256" points="16129.94,9347.65 16630.61,9924.34 16630.61,9924.34 "/>
  <polyline fill="none" stroke="black" stroke-width="7.62" stroke-miterlimit="22.9256" points="15537.29,10564.74 16127.96,10639.47 16380.64,10549.53 "/>
  <polyline fill="none" stroke="black" stroke-width="7.62" stroke-miterlimit="22.9256" points="16630.56,13228.59 16630.56,13228.59 16220.55,12266.03 16141.17,11678.66 16127.96,10639.47 "/>
  <polyline fill="none" stroke="black" stroke-width="7.62" stroke-miterlimit="22.9256" points="16621.47,12338.73 16621.47,12338.73 16101.47,12087.45 15807.16,11818.87 "/>
  <polyline fill="none" stroke="black" stroke-width="7.62" stroke-miterlimit="22.9256" points="15251.54,10488.01 14064.16,10835.99 13669.93,11156.13 13447.68,11351.91 13222.79,11531.85 12947.61,11672.08 10086.63,13241.85 "/>
  <polyline fill="none" stroke="black" stroke-width="7.62" stroke-miterlimit="22.9256" points="12947.61,11672.08 11848.32,11477.62 10924.9,11321.51 10385.16,11255.37 9975.07,11215.69 9684.45,11191.31 "/>
  <polyline fill="none" stroke="black" stroke-width="7.62" stroke-miterlimit="22.9256" points="13669.93,11156.13 13057.46,11094 12327.21,11051.66 11885.35,11019.91 11263.59,10967 10684.14,10932.58 10231.69,10900.83 9726.33,10855.85 9628.9,10855.29 "/>
  <polyline fill="none" stroke="black" stroke-width="7.62" stroke-miterlimit="22.9256" points="15502.9,14964.73 14562.94,14450.91 14018.57,13628.56 13599.83,12358.69 13222.79,11531.85 "/>
  <polyline fill="none" stroke="black" stroke-width="7.62" stroke-miterlimit="22.9256" points="13447.68,11351.91 14099.17,11375.1 14808.23,11431.69 15128.37,11431.69 15476.43,11440.51 "/>
  <polyline fill="none" stroke="black" stroke-width="7.62" stroke-miterlimit="22.9256" points="15755.47,16587.43 15786.59,16560.35 16162.91,16232.87 16621.32,15947.88 16621.32,15947.88 "/>
  <polyline fill="none" stroke="black" stroke-width="7.62" stroke-miterlimit="22.9256" points="13442.29,10123.04 13442.29,10123.04 14027.69,9792.96 14820.06,8569.53 14820.06,8569.53 "/>
  <polyline fill="none" stroke="black" stroke-width="7.62" stroke-miterlimit="22.9256" points="12134.29,8926.74 12134.29,8926.74 13284.99,8478.22 13284.99,8478.22 "/>
 </g>
</svg>
