<?xml version="1.0" encoding="UTF-8"?>
<!DOCTYPE svg PUBLIC "-//W3C//DTD SVG 1.1//EN" "http://www.w3.org/Graphics/SVG/1.1/DTD/svg11.dtd">
<!-- Creator: CorelDRAW 2021 (64-Bit) -->
<svg xmlns="http://www.w3.org/2000/svg" xml:space="preserve" width="128mm" height="131mm" version="1.1" shape-rendering="geometricPrecision" text-rendering="geometricPrecision" image-rendering="optimizeQuality" fill-rule="evenodd" clip-rule="evenodd"
viewBox="0 0 12800 13100"
 xmlns:xlink="http://www.w3.org/1999/xlink"
 xmlns:xodm="http://www.corel.com/coreldraw/odm/2003">
 <g id="Layer_x0020_1">
  <metadata id="CorelCorpID_0Corel-Layer"/>
  <polyline fill="none" stroke="black" stroke-width="7.62" stroke-miterlimit="22.9256" points="1996.81,10896.62 2433.2,10942.7 2996.75,11022.04 3539.16,11191.39 3959.84,11114.65 4409.65,10974.45 4565.75,11024.71 5161.05,11212.54 5346.27,11283.99 5721.99,11297.23 5949.52,11331.62 6229.99,11360.73 6608.34,11432.15 6817.36,11522.12 6891.43,11561.79 7269.79,11596.21 7915.38,11585.62 8187.97,11596.21 "/>
  <polyline fill="none" stroke="black" stroke-width="7.62" stroke-miterlimit="22.9256" points="5748.43,12670.4 5116.1,11961.31 4711.27,11506.24 4565.75,11024.71 "/>
  <polyline fill="none" stroke="black" stroke-width="7.62" stroke-miterlimit="22.9256" points="8561.69,12338.2 8230.29,11932.2 8187.97,11596.21 8156.14,10929.44 8352,10736.3 "/>
  <polyline fill="none" stroke="black" stroke-width="7.62" stroke-miterlimit="22.9256" points="9141.89,12076.44 8352,10736.3 7881.04,9905.46 7193.13,8704.25 7370.39,8235.92 7664.09,7878.75 7701.13,6714.56 7481.52,6285.94 7314.85,6108.67 6571.36,5592.72 6288.25,5381.07 5986.63,4941.85 5748.5,4566.13 5687.65,3785.62 5637.38,3158.54 5584.45,2891.31 5528.9,2555.29 5468.04,2187.53 5460.09,1885.9 6335.88,777.29 6423.32,328.16 "/>
  <polyline fill="none" stroke="black" stroke-width="7.62" stroke-miterlimit="22.9256" points="750.42,6422.26 1258.42,7053.25 1718.8,7669.73 2147.42,8241.23 2771.86,8982.07 2914.73,9712.32 2978.23,10082.75 3959.84,11114.65 "/>
  <polyline fill="none" stroke="black" stroke-width="7.62" stroke-miterlimit="22.9256" points="854.64,9307.76 1112.93,9320.75 1851.13,9802.29 2787.76,10064.21 2978.23,10082.75 "/>
  <polyline fill="none" stroke="black" stroke-width="7.62" stroke-miterlimit="22.9256" points="2771.86,8982.07 2666.04,9090.55 2070.74,9188.45 2078.67,9188.45 1851.13,9802.29 "/>
  <polyline fill="none" stroke="black" stroke-width="7.62" stroke-miterlimit="22.9256" points="2147.42,8241.23 1851.13,8521.7 2078.67,9188.45 "/>
  <polyline fill="none" stroke="black" stroke-width="7.62" stroke-miterlimit="22.9256" points="533.93,8549.54 877.45,8548.16 1851.13,8521.7 "/>
  <polyline fill="none" stroke="black" stroke-width="7.62" stroke-miterlimit="22.9256" points="877.45,8548.16 1104.98,9220.2 1112.93,9320.75 "/>
  <polyline fill="none" stroke="black" stroke-width="7.62" stroke-miterlimit="22.9256" points="2914.73,9712.32 3379.02,9302.19 3926.72,8768.46 5262.86,8536.23 5776.17,8597.08 6202.15,8636.76 6755.11,8671.18 7193.13,8704.25 "/>
  <polyline fill="none" stroke="black" stroke-width="7.62" stroke-miterlimit="22.9256" points="3379.02,9302.19 3744.17,9359.08 3754.76,9359.08 4265.43,9409.35 4545.87,9443.74 4781.35,9456.97 5167.66,9430.51 5913.78,9712.32 6575.25,9927.94 6662.55,9941.15 6853.05,9967.62 7051.5,9938.51 7458.96,9927.94 7881.04,9905.46 "/>
  <polyline fill="none" stroke="black" stroke-width="7.62" stroke-miterlimit="22.9256" points="7458.96,9927.94 7403.41,10764.01 7046.21,11436.06 6948.35,11647.72 6900.7,11912.31 6839.87,12147.77 6773.7,12441.47 6703.87,12754.86 6699.63,12773.88 "/>
  <polyline fill="none" stroke="black" stroke-width="7.62" stroke-miterlimit="22.9256" points="1526.2,2735.14 2486.79,3295.47 3259.36,3721.46 3907.59,4089.22 4034.59,4105.1 4410.31,4581.35 4616.68,5359.25 5018.89,5596.03 5157.8,6179.44 5530.88,7104.15 5677.71,7498.38 5712.11,7576.44 6118.25,7753.73 7370.39,8235.92 "/>
  <polyline fill="none" stroke="black" stroke-width="7.62" stroke-miterlimit="22.9256" points="6118.25,7753.73 6110.28,8328.2 6437.05,8783.29 6820.69,9274.09 6955.64,9634.9 7028.38,9831.04 7051.5,9938.51 "/>
  <polyline fill="none" stroke="black" stroke-width="7.62" stroke-miterlimit="22.9256" points="4616.68,5359.25 4493.7,5585.15 3925.5,6647.46 3438.66,7091.96 2355.14,7091.96 1221.44,5689.68 "/>
  <polyline fill="none" stroke="black" stroke-width="7.62" stroke-miterlimit="22.9256" points="4034.59,4105.1 4698.8,3523.44 4716,2863.29 4754.37,2220.34 4754.37,1890.93 4532.81,1296.9 4722.65,1003.23 5021.79,486.72 "/>
  <line fill="none" stroke="black" stroke-width="7.62" stroke-miterlimit="22.9256" x1="5460.09" y1="1885.9" x2="4722.65" y2= "1003.23" />
  <line fill="none" stroke="black" stroke-width="7.62" stroke-miterlimit="22.9256" x1="4754.37" y1="2220.34" x2="5468.04" y2= "2187.53" />
  <polyline fill="none" stroke="black" stroke-width="7.62" stroke-miterlimit="22.9256" points="6996.25,7610.62 6856.02,7178.04 7370.39,6298.28 7505.57,6173.93 9233.08,5466.16 9918.57,5328.56 "/>
  <polyline fill="none" stroke="black" stroke-width="7.62" stroke-miterlimit="22.9256" points="12421.97,8122.76 12254.86,7955.91 11947.95,7553.73 11402.9,6664.73 11667.46,5582.61 11654.25,5286.3 11601.32,4553.38 11707.16,3518.87 11376.43,3140.51 11286.11,2757.98 "/>
  <line fill="none" stroke="black" stroke-width="7.62" stroke-miterlimit="22.9256" x1="12001.47" y1="3787.45" x2="11707.16" y2= "3518.87" />
  <polyline fill="none" stroke="black" stroke-width="7.62" stroke-miterlimit="22.9256" points="10814.51,2286.78 9964.16,2535.99 9569.93,2856.13 9347.68,3051.91 9122.79,3231.85 8847.61,3372.08 5986.63,4941.85 "/>
  <polyline fill="none" stroke="black" stroke-width="7.62" stroke-miterlimit="22.9256" points="8847.61,3372.08 7748.32,3177.62 6824.9,3021.51 6285.16,2955.37 5875.07,2915.69 5584.45,2891.31 "/>
  <polyline fill="none" stroke="black" stroke-width="7.62" stroke-miterlimit="22.9256" points="9569.93,2856.13 8957.46,2794 8227.21,2751.66 7785.35,2719.91 7163.59,2667 6584.14,2632.58 6131.69,2600.83 5626.33,2555.85 5528.9,2555.29 "/>
  <polyline fill="none" stroke="black" stroke-width="7.62" stroke-miterlimit="22.9256" points="11402.9,6664.73 10462.94,6150.91 9918.57,5328.56 9499.83,4058.69 9122.79,3231.85 "/>
  <polyline fill="none" stroke="black" stroke-width="7.62" stroke-miterlimit="22.9256" points="9347.68,3051.91 9999.17,3075.1 10708.23,3131.69 11028.37,3131.69 11376.43,3140.51 "/>
  <polyline fill="none" stroke="black" stroke-width="7.62" stroke-miterlimit="22.9256" points="11655.47,8287.43 12062.91,7932.87 12527.36,7644.13 12535.3,7639.2 "/>
  <line fill="none" stroke="black" stroke-width="7.62" stroke-miterlimit="22.9256" x1="9327.08" y1="1831.62" x2="9927.69" y2= "1492.96" />
 </g>
</svg>
