<?xml version="1.0" encoding="UTF-8"?>
<!DOCTYPE svg PUBLIC "-//W3C//DTD SVG 1.1//EN" "http://www.w3.org/Graphics/SVG/1.1/DTD/svg11.dtd">
<!-- Creator: CorelDRAW 2019 (64-Bit) -->
<svg xmlns="http://www.w3.org/2000/svg" xml:space="preserve" width="8.26772in" height="11.6929in" version="1.1" shape-rendering="geometricPrecision" text-rendering="geometricPrecision" image-rendering="optimizeQuality" fill-rule="evenodd" clip-rule="evenodd"
viewBox="0 0 8267.72 11692.91"
 xmlns:xlink="http://www.w3.org/1999/xlink">
 <g id="Layer_x0020_1">
  <metadata id="CorelCorpID_0Corel-Layer"/>
  <polyline fill="none" stroke="black" stroke-width="3" stroke-miterlimit="2.61313" points="1349.68,6165.17 2237.57,6258.93 2459.44,6290.17 2672.99,6356.84 2838.61,6326.63 3015.7,6271.43 3077.16,6291.22 3311.53,6365.17 3384.45,6393.3 3532.37,6398.51 3621.95,6412.05 3732.37,6423.51 3881.33,6451.63 3963.62,6487.05 3992.78,6502.67 4141.74,6516.22 4395.91,6512.05 4503.23,6516.22 "/>
  <polyline fill="none" stroke="black" stroke-width="3" stroke-miterlimit="2.61313" points="3542.78,6939.13 3293.83,6659.96 3134.45,6480.8 3077.16,6291.22 "/>
  <polyline fill="none" stroke="black" stroke-width="3" stroke-miterlimit="2.61313" points="4760.52,6943.3 4519.89,6648.5 4503.23,6516.22 4490.7,6253.71 4567.81,6177.67 "/>
  <polyline fill="none" stroke="black" stroke-width="3" stroke-miterlimit="2.61313" points="4914.69,6766.2 4567.81,6177.67 4382.39,5850.57 4111.56,5377.65 4181.35,5193.27 4296.98,5052.65 4311.56,4594.31 4225.1,4425.56 4159.48,4355.77 3866.77,4152.64 3755.31,4069.31 3636.56,3896.39 3542.81,3748.47 3518.85,3441.18 3499.06,3194.3 3478.22,3089.09 3456.35,2956.8 3432.39,2812.01 3429.26,2693.26 3774.06,2256.8 3828.22,1978.59 "/>
  <polyline fill="none" stroke="black" stroke-width="3" stroke-miterlimit="2.61313" points="1575.06,4479.23 1775.06,4727.65 1956.31,4970.36 2125.06,5195.36 2370.9,5487.03 2427.15,5774.53 2452.15,5920.37 2838.61,6326.63 "/>
  <polyline fill="none" stroke="black" stroke-width="3" stroke-miterlimit="2.61313" points="1365.7,5602.66 1717.78,5620.37 2008.41,5809.95 2377.16,5913.07 2452.15,5920.37 "/>
  <polyline fill="none" stroke="black" stroke-width="3" stroke-miterlimit="2.61313" points="2370.9,5487.03 2329.24,5529.74 2094.87,5568.28 2097.99,5568.28 2008.41,5809.95 "/>
  <polyline fill="none" stroke="black" stroke-width="3" stroke-miterlimit="2.61313" points="2125.06,5195.36 2008.41,5305.78 2097.99,5568.28 "/>
  <polyline fill="none" stroke="black" stroke-width="3" stroke-miterlimit="2.61313" points="1365.7,5317.24 1625.07,5316.2 2008.41,5305.78 "/>
  <polyline fill="none" stroke="black" stroke-width="3" stroke-miterlimit="2.61313" points="1625.07,5316.2 1714.65,5580.78 1717.78,5620.37 "/>
  <polyline fill="none" stroke="black" stroke-width="3" stroke-miterlimit="2.61313" points="2427.15,5774.53 2609.94,5613.06 2825.57,5402.93 3351.61,5311.5 3553.7,5335.46 3721.41,5351.08 3939.11,5364.63 4111.56,5377.65 "/>
  <polyline fill="none" stroke="black" stroke-width="3" stroke-miterlimit="2.61313" points="2609.94,5613.06 2753.7,5635.46 2757.87,5635.46 2958.92,5655.25 3069.33,5668.79 3162.04,5674 3314.13,5663.58 3607.88,5774.53 3868.3,5859.42 3902.67,5864.62 3977.67,5875.04 4055.8,5863.58 4216.22,5859.42 4382.39,5850.57 "/>
  <polyline fill="none" stroke="black" stroke-width="3" stroke-miterlimit="2.61313" points="4216.22,5859.42 4194.35,6188.58 4053.72,6453.17 4015.19,6536.5 3996.43,6640.67 3972.48,6733.37 3946.43,6849 3917.27,6979.87 "/>
  <polyline fill="none" stroke="black" stroke-width="3" stroke-miterlimit="2.61313" points="2022.47,2098.98 1859.97,2492.73 1712.06,2753.15 1754.24,2878.67 1858.67,3014.88 2258.67,3248.21 2562.83,3415.92 2818.04,3560.71 2868.04,3566.96 3015.96,3754.46 3097.21,4060.72 3255.56,4153.94 3310.25,4383.63 3457.13,4747.69 3514.94,4902.9 3528.48,4933.63 3688.38,5003.43 4181.35,5193.27 "/>
  <polyline fill="none" stroke="black" stroke-width="3" stroke-miterlimit="2.61313" points="3688.38,5003.43 3685.24,5229.6 3813.89,5408.77 3964.93,5602 4018.06,5744.05 4046.7,5821.27 4055.8,5863.58 "/>
  <polyline fill="none" stroke="black" stroke-width="3" stroke-miterlimit="2.61313" points="3097.21,4060.72 3048.79,4149.66 2825.09,4567.89 2633.42,4742.89 2206.84,4742.89 1760.5,4190.81 "/>
  <polyline fill="none" stroke="black" stroke-width="3" stroke-miterlimit="2.61313" points="1858.67,3014.88 1748.55,3018.93 1374.33,3020.76 "/>
  <polyline fill="none" stroke="black" stroke-width="3" stroke-miterlimit="2.61313" points="2868.04,3566.96 3129.54,3337.96 3136.31,3078.06 3151.42,2824.93 3151.42,2695.24 3064.19,2461.37 3138.93,2345.75 3341.79,1995.49 "/>
  <line fill="none" stroke="black" stroke-width="3" stroke-miterlimit="2.61313" x1="3429.26" y1="2693.26" x2="3138.93" y2= "2345.75" />
  <line fill="none" stroke="black" stroke-width="3" stroke-miterlimit="2.61313" x1="3151.42" y1="2824.93" x2="3432.39" y2= "2812.01" />
  <polyline fill="none" stroke="black" stroke-width="3" stroke-miterlimit="2.61313" points="4034.05,4947.09 3978.84,4776.78 4181.35,4430.42 4234.57,4381.46 4914.69,4102.81 5184.57,4048.64 "/>
  <polyline fill="none" stroke="black" stroke-width="3" stroke-miterlimit="2.61313" points="6214.78,5193.27 6104.37,5083.03 5983.54,4924.69 5768.95,4574.69 5873.11,4148.66 5867.91,4032 5847.07,3743.45 5888.74,3336.16 5758.53,3187.2 5782.49,2842.41 5669.99,2812.2 6015.82,2363.24 6137.7,2023.65 "/>
  <line fill="none" stroke="black" stroke-width="3" stroke-miterlimit="2.61313" x1="6015.82" y1="2363.24" x2="6214.78" y2= "2592.41" />
  <polyline fill="none" stroke="black" stroke-width="3" stroke-miterlimit="2.61313" points="5782.49,2842.41 6015.04,2871.83 6114.52,2836.42 "/>
  <polyline fill="none" stroke="black" stroke-width="3" stroke-miterlimit="2.61313" points="6214.78,3895.55 6051.49,3512.21 6020.24,3280.96 6015.04,2871.83 "/>
  <polyline fill="none" stroke="black" stroke-width="3" stroke-miterlimit="2.61313" points="6214.78,3543.46 6004.61,3441.9 5888.74,3336.16 "/>
  <polyline fill="none" stroke="black" stroke-width="3" stroke-miterlimit="2.61313" points="5669.99,2812.2 5202.52,2949.2 5047.31,3075.24 4959.81,3152.32 4871.27,3223.16 4762.93,3278.37 3636.56,3896.39 "/>
  <polyline fill="none" stroke="black" stroke-width="3" stroke-miterlimit="2.61313" points="4762.93,3278.37 4330.14,3201.81 3966.59,3140.35 3754.09,3114.31 3592.64,3098.69 3478.22,3089.09 "/>
  <polyline fill="none" stroke="black" stroke-width="3" stroke-miterlimit="2.61313" points="5047.31,3075.24 4806.18,3050.78 4518.68,3034.11 4344.72,3021.61 4099.93,3000.78 3871.8,2987.23 3693.67,2974.73 3494.71,2957.02 3456.35,2956.8 "/>
  <polyline fill="none" stroke="black" stroke-width="3" stroke-miterlimit="2.61313" points="5768.95,4574.69 5398.89,4372.4 5184.57,4048.64 5019.71,3548.69 4871.27,3223.16 "/>
  <polyline fill="none" stroke="black" stroke-width="3" stroke-miterlimit="2.61313" points="4959.81,3152.32 5216.3,3161.45 5495.46,3183.73 5621.5,3183.73 5758.53,3187.2 "/>
  <polyline fill="none" stroke="black" stroke-width="3" stroke-miterlimit="2.61313" points="5868.39,5213.55 6028.8,5073.96 6214.78,4958.34 "/>
  <polyline fill="none" stroke="black" stroke-width="3" stroke-miterlimit="2.61313" points="4951.7,2671.89 5188.16,2538.56 5507.95,2044.8 "/>
  <line fill="none" stroke="black" stroke-width="3" stroke-miterlimit="2.61313" x1="4425.66" y1="2204.18" x2="4914.69" y2= "2013.56" />
 </g>
</svg>
